<?xml version="1.0" encoding="utf-8" standalone="no"?>
<!DOCTYPE svg PUBLIC "-//W3C//DTD SVG 1.1//EN"
  "http://www.w3.org/Graphics/SVG/1.1/DTD/svg11.dtd">
<!-- Created with matplotlib (http://matplotlib.org/) -->
<svg height="453.334219pt" version="1.1" viewBox="0 0 409.5625 453.334219" width="409.5625pt" xmlns="http://www.w3.org/2000/svg" xmlns:xlink="http://www.w3.org/1999/xlink">
 <defs>
  <style type="text/css">
*{stroke-linecap:butt;stroke-linejoin:round;}
  </style>
 </defs>
 <g id="figure_1">
  <g id="patch_1">
   <path d="M 0 453.334219 
L 409.5625 453.334219 
L 409.5625 0 
L 0 0 
z
" style="fill:#ffffff;"/>
  </g>
  <g id="axes_1">
   <g id="patch_2">
    <path d="M 101.88125 438.591719 
L 400.65625 438.591719 
L 400.65625 12.551719 
L 101.88125 12.551719 
z
" style="fill:#ffffff;"/>
   </g>
   <g id="patch_3">
    <path clip-path="url(#pb695fcaf49)" d="M 105.242151 13.838849 
L 397.295349 13.838849 
L 397.295349 26.710148 
L 105.242151 26.710148 
z
" style="fill:#d9e6f5;stroke:#444443;stroke-linejoin:miter;stroke-width:0.5;"/>
   </g>
   <g id="patch_4">
    <path clip-path="url(#pb695fcaf49)" d="M 105.242151 27.997278 
L 295.183014 27.997278 
L 295.183014 40.868577 
L 105.242151 40.868577 
z
" style="fill:#d9e6f5;stroke:#444443;stroke-linejoin:miter;stroke-width:0.5;"/>
   </g>
   <g id="patch_5">
    <path clip-path="url(#pb695fcaf49)" d="M 105.242151 42.155707 
L 284.993548 42.155707 
L 284.993548 55.027006 
L 105.242151 55.027006 
z
" style="fill:#d9e6f5;stroke:#444443;stroke-linejoin:miter;stroke-width:0.5;"/>
   </g>
   <g id="patch_6">
    <path clip-path="url(#pb695fcaf49)" d="M 105.242151 56.314136 
L 238.386989 56.314136 
L 238.386989 69.185435 
L 105.242151 69.185435 
z
" style="fill:#d9e6f5;stroke:#444443;stroke-linejoin:miter;stroke-width:0.5;"/>
   </g>
   <g id="patch_7">
    <path clip-path="url(#pb695fcaf49)" d="M 105.242151 70.472565 
L 236.439264 70.472565 
L 236.439264 83.343864 
L 105.242151 83.343864 
z
" style="fill:#d9e6f5;stroke:#444443;stroke-linejoin:miter;stroke-width:0.5;"/>
   </g>
   <g id="patch_8">
    <path clip-path="url(#pb695fcaf49)" d="M 105.242151 84.630994 
L 211.761812 84.630994 
L 211.761812 97.502293 
L 105.242151 97.502293 
z
" style="fill:#d9e6f5;stroke:#444443;stroke-linejoin:miter;stroke-width:0.5;"/>
   </g>
   <g id="patch_9">
    <path clip-path="url(#pb695fcaf49)" d="M 105.242151 98.789423 
L 203.644427 98.789423 
L 203.644427 111.660722 
L 105.242151 111.660722 
z
" style="fill:#d9e6f5;stroke:#444443;stroke-linejoin:miter;stroke-width:0.5;"/>
   </g>
   <g id="patch_10">
    <path clip-path="url(#pb695fcaf49)" d="M 105.242151 112.947852 
L 193.129007 112.947852 
L 193.129007 125.819151 
L 105.242151 125.819151 
z
" style="fill:#d9e6f5;stroke:#444443;stroke-linejoin:miter;stroke-width:0.5;"/>
   </g>
   <g id="patch_11">
    <path clip-path="url(#pb695fcaf49)" d="M 105.242151 127.106281 
L 180.582749 127.106281 
L 180.582749 139.97758 
L 105.242151 139.97758 
z
" style="fill:#d9e6f5;stroke:#444443;stroke-linejoin:miter;stroke-width:0.5;"/>
   </g>
   <g id="patch_12">
    <path clip-path="url(#pb695fcaf49)" d="M 105.242151 141.26471 
L 163.115193 141.26471 
L 163.115193 154.136009 
L 105.242151 154.136009 
z
" style="fill:#d9e6f5;stroke:#444443;stroke-linejoin:miter;stroke-width:0.5;"/>
   </g>
   <g id="patch_13">
    <path clip-path="url(#pb695fcaf49)" d="M 105.242151 155.423139 
L 153.920532 155.423139 
L 153.920532 168.294438 
L 105.242151 168.294438 
z
" style="fill:#d9e6f5;stroke:#444443;stroke-linejoin:miter;stroke-width:0.5;"/>
   </g>
   <g id="patch_14">
    <path clip-path="url(#pb695fcaf49)" d="M 105.242151 169.581568 
L 141.02041 169.581568 
L 141.02041 182.452867 
L 105.242151 182.452867 
z
" style="fill:#d9e6f5;stroke:#444443;stroke-linejoin:miter;stroke-width:0.5;"/>
   </g>
   <g id="patch_15">
    <path clip-path="url(#pb695fcaf49)" d="M 105.242151 183.739997 
L 137.796239 183.739997 
L 137.796239 196.611296 
L 105.242151 196.611296 
z
" style="fill:#d9e6f5;stroke:#444443;stroke-linejoin:miter;stroke-width:0.5;"/>
   </g>
   <g id="patch_16">
    <path clip-path="url(#pb695fcaf49)" d="M 105.242151 197.898426 
L 133.294451 197.898426 
L 133.294451 210.769725 
L 105.242151 210.769725 
z
" style="fill:#d9e6f5;stroke:#444443;stroke-linejoin:miter;stroke-width:0.5;"/>
   </g>
   <g id="patch_17">
    <path clip-path="url(#pb695fcaf49)" d="M 105.242151 212.056855 
L 131.944497 212.056855 
L 131.944497 224.928154 
L 105.242151 224.928154 
z
" style="fill:#d9e6f5;stroke:#444443;stroke-linejoin:miter;stroke-width:0.5;"/>
   </g>
   <g id="patch_18">
    <path clip-path="url(#pb695fcaf49)" d="M 105.242151 226.215284 
L 127.958166 226.215284 
L 127.958166 239.086583 
L 105.242151 239.086583 
z
" style="fill:#d9e6f5;stroke:#444443;stroke-linejoin:miter;stroke-width:0.5;"/>
   </g>
   <g id="patch_19">
    <path clip-path="url(#pb695fcaf49)" d="M 105.242151 240.373713 
L 127.570788 240.373713 
L 127.570788 253.245012 
L 105.242151 253.245012 
z
" style="fill:#d9e6f5;stroke:#444443;stroke-linejoin:miter;stroke-width:0.5;"/>
   </g>
   <g id="patch_20">
    <path clip-path="url(#pb695fcaf49)" d="M 105.242151 254.532142 
L 125.290282 254.532142 
L 125.290282 267.403441 
L 105.242151 267.403441 
z
" style="fill:#d9e6f5;stroke:#444443;stroke-linejoin:miter;stroke-width:0.5;"/>
   </g>
   <g id="patch_21">
    <path clip-path="url(#pb695fcaf49)" d="M 105.242151 268.690571 
L 123.370144 268.690571 
L 123.370144 281.56187 
L 105.242151 281.56187 
z
" style="fill:#d9e6f5;stroke:#444443;stroke-linejoin:miter;stroke-width:0.5;"/>
   </g>
   <g id="patch_22">
    <path clip-path="url(#pb695fcaf49)" d="M 105.242151 282.849 
L 115.107569 282.849 
L 115.107569 295.720299 
L 105.242151 295.720299 
z
" style="fill:#d9e6f5;stroke:#444443;stroke-linejoin:miter;stroke-width:0.5;"/>
   </g>
   <g id="patch_23">
    <path clip-path="url(#pb695fcaf49)" d="M 105.242151 297.007429 
L 113.418976 297.007429 
L 113.418976 309.878728 
L 105.242151 309.878728 
z
" style="fill:#d9e6f5;stroke:#444443;stroke-linejoin:miter;stroke-width:0.5;"/>
   </g>
   <g id="patch_24">
    <path clip-path="url(#pb695fcaf49)" d="M 105.242151 311.165858 
L 113.15017 311.165858 
L 113.15017 324.037157 
L 105.242151 324.037157 
z
" style="fill:#d9e6f5;stroke:#444443;stroke-linejoin:miter;stroke-width:0.5;"/>
   </g>
   <g id="patch_25">
    <path clip-path="url(#pb695fcaf49)" d="M 105.242151 325.324287 
L 113.034325 325.324287 
L 113.034325 338.195586 
L 105.242151 338.195586 
z
" style="fill:#d9e6f5;stroke:#444443;stroke-linejoin:miter;stroke-width:0.5;"/>
   </g>
   <g id="patch_26">
    <path clip-path="url(#pb695fcaf49)" d="M 105.242151 339.482716 
L 112.91642 339.482716 
L 112.91642 352.354015 
L 105.242151 352.354015 
z
" style="fill:#d9e6f5;stroke:#444443;stroke-linejoin:miter;stroke-width:0.5;"/>
   </g>
   <g id="patch_27">
    <path clip-path="url(#pb695fcaf49)" d="M 105.242151 353.641145 
L 112.462506 353.641145 
L 112.462506 366.512444 
L 105.242151 366.512444 
z
" style="fill:#d9e6f5;stroke:#444443;stroke-linejoin:miter;stroke-width:0.5;"/>
   </g>
   <g id="patch_28">
    <path clip-path="url(#pb695fcaf49)" d="M 105.242151 367.799574 
L 111.187277 367.799574 
L 111.187277 380.670873 
L 105.242151 380.670873 
z
" style="fill:#d9e6f5;stroke:#444443;stroke-linejoin:miter;stroke-width:0.5;"/>
   </g>
   <g id="patch_29">
    <path clip-path="url(#pb695fcaf49)" d="M 105.242151 381.958003 
L 110.665121 381.958003 
L 110.665121 394.829302 
L 105.242151 394.829302 
z
" style="fill:#d9e6f5;stroke:#444443;stroke-linejoin:miter;stroke-width:0.5;"/>
   </g>
   <g id="patch_30">
    <path clip-path="url(#pb695fcaf49)" d="M 105.242151 396.116432 
L 110.039371 396.116432 
L 110.039371 408.987731 
L 105.242151 408.987731 
z
" style="fill:#d9e6f5;stroke:#444443;stroke-linejoin:miter;stroke-width:0.5;"/>
   </g>
   <g id="patch_31">
    <path clip-path="url(#pb695fcaf49)" d="M 105.242151 410.274861 
L 109.898418 410.274861 
L 109.898418 423.14616 
L 105.242151 423.14616 
z
" style="fill:#d9e6f5;stroke:#444443;stroke-linejoin:miter;stroke-width:0.5;"/>
   </g>
   <g id="patch_32">
    <path clip-path="url(#pb695fcaf49)" d="M 105.242151 424.43329 
L 109.138222 424.43329 
L 109.138222 437.304589 
L 105.242151 437.304589 
z
" style="fill:#d9e6f5;stroke:#444443;stroke-linejoin:miter;stroke-width:0.5;"/>
   </g>
   <g id="matplotlib.axis_1">
    <g id="xtick_1">
     <g id="line2d_1">
      <defs>
       <path d="M 0 0 
L 0 3.5 
" id="m939acce5f2" style="stroke:#000000;stroke-width:0.8;"/>
      </defs>
      <g>
       <use style="stroke:#000000;stroke-width:0.8;" x="105.242151" xlink:href="#m939acce5f2" y="438.591719"/>
      </g>
     </g>
     <g id="text_1">
      <!-- 0.00 -->
      <defs>
       <path d="M 31.78125 66.40625 
Q 24.171875 66.40625 20.328125 58.90625 
Q 16.5 51.421875 16.5 36.375 
Q 16.5 21.390625 20.328125 13.890625 
Q 24.171875 6.390625 31.78125 6.390625 
Q 39.453125 6.390625 43.28125 13.890625 
Q 47.125 21.390625 47.125 36.375 
Q 47.125 51.421875 43.28125 58.90625 
Q 39.453125 66.40625 31.78125 66.40625 
z
M 31.78125 74.21875 
Q 44.046875 74.21875 50.515625 64.515625 
Q 56.984375 54.828125 56.984375 36.375 
Q 56.984375 17.96875 50.515625 8.265625 
Q 44.046875 -1.421875 31.78125 -1.421875 
Q 19.53125 -1.421875 13.0625 8.265625 
Q 6.59375 17.96875 6.59375 36.375 
Q 6.59375 54.828125 13.0625 64.515625 
Q 19.53125 74.21875 31.78125 74.21875 
z
" id="DejaVuSans-30"/>
       <path d="M 10.6875 12.40625 
L 21 12.40625 
L 21 0 
L 10.6875 0 
z
" id="DejaVuSans-2e"/>
      </defs>
      <g style="fill:#444443;" transform="translate(96.335901 451.670469)scale(0.08 -0.08)">
       <use xlink:href="#DejaVuSans-30"/>
       <use x="63.623047" xlink:href="#DejaVuSans-2e"/>
       <use x="95.410156" xlink:href="#DejaVuSans-30"/>
       <use x="159.033203" xlink:href="#DejaVuSans-30"/>
      </g>
     </g>
    </g>
    <g id="xtick_2">
     <g id="line2d_2">
      <g>
       <use style="stroke:#000000;stroke-width:0.8;" x="400.65625" xlink:href="#m939acce5f2" y="438.591719"/>
      </g>
     </g>
     <g id="text_2">
      <!-- 0.18 -->
      <defs>
       <path d="M 12.40625 8.296875 
L 28.515625 8.296875 
L 28.515625 63.921875 
L 10.984375 60.40625 
L 10.984375 69.390625 
L 28.421875 72.90625 
L 38.28125 72.90625 
L 38.28125 8.296875 
L 54.390625 8.296875 
L 54.390625 0 
L 12.40625 0 
z
" id="DejaVuSans-31"/>
       <path d="M 31.78125 34.625 
Q 24.75 34.625 20.71875 30.859375 
Q 16.703125 27.09375 16.703125 20.515625 
Q 16.703125 13.921875 20.71875 10.15625 
Q 24.75 6.390625 31.78125 6.390625 
Q 38.8125 6.390625 42.859375 10.171875 
Q 46.921875 13.96875 46.921875 20.515625 
Q 46.921875 27.09375 42.890625 30.859375 
Q 38.875 34.625 31.78125 34.625 
z
M 21.921875 38.8125 
Q 15.578125 40.375 12.03125 44.71875 
Q 8.5 49.078125 8.5 55.328125 
Q 8.5 64.0625 14.71875 69.140625 
Q 20.953125 74.21875 31.78125 74.21875 
Q 42.671875 74.21875 48.875 69.140625 
Q 55.078125 64.0625 55.078125 55.328125 
Q 55.078125 49.078125 51.53125 44.71875 
Q 48 40.375 41.703125 38.8125 
Q 48.828125 37.15625 52.796875 32.3125 
Q 56.78125 27.484375 56.78125 20.515625 
Q 56.78125 9.90625 50.3125 4.234375 
Q 43.84375 -1.421875 31.78125 -1.421875 
Q 19.734375 -1.421875 13.25 4.234375 
Q 6.78125 9.90625 6.78125 20.515625 
Q 6.78125 27.484375 10.78125 32.3125 
Q 14.796875 37.15625 21.921875 38.8125 
z
M 18.3125 54.390625 
Q 18.3125 48.734375 21.84375 45.5625 
Q 25.390625 42.390625 31.78125 42.390625 
Q 38.140625 42.390625 41.71875 45.5625 
Q 45.3125 48.734375 45.3125 54.390625 
Q 45.3125 60.0625 41.71875 63.234375 
Q 38.140625 66.40625 31.78125 66.40625 
Q 25.390625 66.40625 21.84375 63.234375 
Q 18.3125 60.0625 18.3125 54.390625 
z
" id="DejaVuSans-38"/>
      </defs>
      <g style="fill:#444443;" transform="translate(391.75 451.670469)scale(0.08 -0.08)">
       <use xlink:href="#DejaVuSans-30"/>
       <use x="63.623047" xlink:href="#DejaVuSans-2e"/>
       <use x="95.410156" xlink:href="#DejaVuSans-31"/>
       <use x="159.033203" xlink:href="#DejaVuSans-38"/>
      </g>
     </g>
    </g>
   </g>
   <g id="matplotlib.axis_2">
    <g id="ytick_1">
     <g id="line2d_3">
      <defs>
       <path d="M 0 0 
L -3.5 0 
" id="mbd0007fb4d" style="stroke:#000000;stroke-width:0.8;"/>
      </defs>
      <g>
       <use style="stroke:#000000;stroke-width:0.8;" x="101.88125" xlink:href="#mbd0007fb4d" y="20.274498"/>
      </g>
     </g>
     <g id="text_3">
      <!-- worst perimeter -->
      <defs>
       <path d="M 4.203125 54.6875 
L 13.1875 54.6875 
L 24.421875 12.015625 
L 35.59375 54.6875 
L 46.1875 54.6875 
L 57.421875 12.015625 
L 68.609375 54.6875 
L 77.59375 54.6875 
L 63.28125 0 
L 52.6875 0 
L 40.921875 44.828125 
L 29.109375 0 
L 18.5 0 
z
" id="DejaVuSans-77"/>
       <path d="M 30.609375 48.390625 
Q 23.390625 48.390625 19.1875 42.75 
Q 14.984375 37.109375 14.984375 27.296875 
Q 14.984375 17.484375 19.15625 11.84375 
Q 23.34375 6.203125 30.609375 6.203125 
Q 37.796875 6.203125 41.984375 11.859375 
Q 46.1875 17.53125 46.1875 27.296875 
Q 46.1875 37.015625 41.984375 42.703125 
Q 37.796875 48.390625 30.609375 48.390625 
z
M 30.609375 56 
Q 42.328125 56 49.015625 48.375 
Q 55.71875 40.765625 55.71875 27.296875 
Q 55.71875 13.875 49.015625 6.21875 
Q 42.328125 -1.421875 30.609375 -1.421875 
Q 18.84375 -1.421875 12.171875 6.21875 
Q 5.515625 13.875 5.515625 27.296875 
Q 5.515625 40.765625 12.171875 48.375 
Q 18.84375 56 30.609375 56 
z
" id="DejaVuSans-6f"/>
       <path d="M 41.109375 46.296875 
Q 39.59375 47.171875 37.8125 47.578125 
Q 36.03125 48 33.890625 48 
Q 26.265625 48 22.1875 43.046875 
Q 18.109375 38.09375 18.109375 28.8125 
L 18.109375 0 
L 9.078125 0 
L 9.078125 54.6875 
L 18.109375 54.6875 
L 18.109375 46.1875 
Q 20.953125 51.171875 25.484375 53.578125 
Q 30.03125 56 36.53125 56 
Q 37.453125 56 38.578125 55.875 
Q 39.703125 55.765625 41.0625 55.515625 
z
" id="DejaVuSans-72"/>
       <path d="M 44.28125 53.078125 
L 44.28125 44.578125 
Q 40.484375 46.53125 36.375 47.5 
Q 32.28125 48.484375 27.875 48.484375 
Q 21.1875 48.484375 17.84375 46.4375 
Q 14.5 44.390625 14.5 40.28125 
Q 14.5 37.15625 16.890625 35.375 
Q 19.28125 33.59375 26.515625 31.984375 
L 29.59375 31.296875 
Q 39.15625 29.25 43.1875 25.515625 
Q 47.21875 21.78125 47.21875 15.09375 
Q 47.21875 7.46875 41.1875 3.015625 
Q 35.15625 -1.421875 24.609375 -1.421875 
Q 20.21875 -1.421875 15.453125 -0.5625 
Q 10.6875 0.296875 5.421875 2 
L 5.421875 11.28125 
Q 10.40625 8.6875 15.234375 7.390625 
Q 20.0625 6.109375 24.8125 6.109375 
Q 31.15625 6.109375 34.5625 8.28125 
Q 37.984375 10.453125 37.984375 14.40625 
Q 37.984375 18.0625 35.515625 20.015625 
Q 33.0625 21.96875 24.703125 23.78125 
L 21.578125 24.515625 
Q 13.234375 26.265625 9.515625 29.90625 
Q 5.8125 33.546875 5.8125 39.890625 
Q 5.8125 47.609375 11.28125 51.796875 
Q 16.75 56 26.8125 56 
Q 31.78125 56 36.171875 55.265625 
Q 40.578125 54.546875 44.28125 53.078125 
z
" id="DejaVuSans-73"/>
       <path d="M 18.3125 70.21875 
L 18.3125 54.6875 
L 36.8125 54.6875 
L 36.8125 47.703125 
L 18.3125 47.703125 
L 18.3125 18.015625 
Q 18.3125 11.328125 20.140625 9.421875 
Q 21.96875 7.515625 27.59375 7.515625 
L 36.8125 7.515625 
L 36.8125 0 
L 27.59375 0 
Q 17.1875 0 13.234375 3.875 
Q 9.28125 7.765625 9.28125 18.015625 
L 9.28125 47.703125 
L 2.6875 47.703125 
L 2.6875 54.6875 
L 9.28125 54.6875 
L 9.28125 70.21875 
z
" id="DejaVuSans-74"/>
       <path id="DejaVuSans-20"/>
       <path d="M 18.109375 8.203125 
L 18.109375 -20.796875 
L 9.078125 -20.796875 
L 9.078125 54.6875 
L 18.109375 54.6875 
L 18.109375 46.390625 
Q 20.953125 51.265625 25.265625 53.625 
Q 29.59375 56 35.59375 56 
Q 45.5625 56 51.78125 48.09375 
Q 58.015625 40.1875 58.015625 27.296875 
Q 58.015625 14.40625 51.78125 6.484375 
Q 45.5625 -1.421875 35.59375 -1.421875 
Q 29.59375 -1.421875 25.265625 0.953125 
Q 20.953125 3.328125 18.109375 8.203125 
z
M 48.6875 27.296875 
Q 48.6875 37.203125 44.609375 42.84375 
Q 40.53125 48.484375 33.40625 48.484375 
Q 26.265625 48.484375 22.1875 42.84375 
Q 18.109375 37.203125 18.109375 27.296875 
Q 18.109375 17.390625 22.1875 11.75 
Q 26.265625 6.109375 33.40625 6.109375 
Q 40.53125 6.109375 44.609375 11.75 
Q 48.6875 17.390625 48.6875 27.296875 
z
" id="DejaVuSans-70"/>
       <path d="M 56.203125 29.59375 
L 56.203125 25.203125 
L 14.890625 25.203125 
Q 15.484375 15.921875 20.484375 11.0625 
Q 25.484375 6.203125 34.421875 6.203125 
Q 39.59375 6.203125 44.453125 7.46875 
Q 49.3125 8.734375 54.109375 11.28125 
L 54.109375 2.78125 
Q 49.265625 0.734375 44.1875 -0.34375 
Q 39.109375 -1.421875 33.890625 -1.421875 
Q 20.796875 -1.421875 13.15625 6.1875 
Q 5.515625 13.8125 5.515625 26.8125 
Q 5.515625 40.234375 12.765625 48.109375 
Q 20.015625 56 32.328125 56 
Q 43.359375 56 49.78125 48.890625 
Q 56.203125 41.796875 56.203125 29.59375 
z
M 47.21875 32.234375 
Q 47.125 39.59375 43.09375 43.984375 
Q 39.0625 48.390625 32.421875 48.390625 
Q 24.90625 48.390625 20.390625 44.140625 
Q 15.875 39.890625 15.1875 32.171875 
z
" id="DejaVuSans-65"/>
       <path d="M 9.421875 54.6875 
L 18.40625 54.6875 
L 18.40625 0 
L 9.421875 0 
z
M 9.421875 75.984375 
L 18.40625 75.984375 
L 18.40625 64.59375 
L 9.421875 64.59375 
z
" id="DejaVuSans-69"/>
       <path d="M 52 44.1875 
Q 55.375 50.25 60.0625 53.125 
Q 64.75 56 71.09375 56 
Q 79.640625 56 84.28125 50.015625 
Q 88.921875 44.046875 88.921875 33.015625 
L 88.921875 0 
L 79.890625 0 
L 79.890625 32.71875 
Q 79.890625 40.578125 77.09375 44.375 
Q 74.3125 48.1875 68.609375 48.1875 
Q 61.625 48.1875 57.5625 43.546875 
Q 53.515625 38.921875 53.515625 30.90625 
L 53.515625 0 
L 44.484375 0 
L 44.484375 32.71875 
Q 44.484375 40.625 41.703125 44.40625 
Q 38.921875 48.1875 33.109375 48.1875 
Q 26.21875 48.1875 22.15625 43.53125 
Q 18.109375 38.875 18.109375 30.90625 
L 18.109375 0 
L 9.078125 0 
L 9.078125 54.6875 
L 18.109375 54.6875 
L 18.109375 46.1875 
Q 21.1875 51.21875 25.484375 53.609375 
Q 29.78125 56 35.6875 56 
Q 41.65625 56 45.828125 52.96875 
Q 50 49.953125 52 44.1875 
z
" id="DejaVuSans-6d"/>
      </defs>
      <g style="fill:#444443;" transform="translate(30.73375 23.313873)scale(0.08 -0.08)">
       <use xlink:href="#DejaVuSans-77"/>
       <use x="81.787109" xlink:href="#DejaVuSans-6f"/>
       <use x="142.96875" xlink:href="#DejaVuSans-72"/>
       <use x="184.082031" xlink:href="#DejaVuSans-73"/>
       <use x="236.181641" xlink:href="#DejaVuSans-74"/>
       <use x="275.390625" xlink:href="#DejaVuSans-20"/>
       <use x="307.177734" xlink:href="#DejaVuSans-70"/>
       <use x="370.654297" xlink:href="#DejaVuSans-65"/>
       <use x="432.177734" xlink:href="#DejaVuSans-72"/>
       <use x="473.291016" xlink:href="#DejaVuSans-69"/>
       <use x="501.074219" xlink:href="#DejaVuSans-6d"/>
       <use x="598.486328" xlink:href="#DejaVuSans-65"/>
       <use x="660.009766" xlink:href="#DejaVuSans-74"/>
       <use x="699.21875" xlink:href="#DejaVuSans-65"/>
       <use x="760.742188" xlink:href="#DejaVuSans-72"/>
      </g>
     </g>
    </g>
    <g id="ytick_2">
     <g id="line2d_4">
      <g>
       <use style="stroke:#000000;stroke-width:0.8;" x="101.88125" xlink:href="#mbd0007fb4d" y="34.432927"/>
      </g>
     </g>
     <g id="text_4">
      <!-- worst radius -->
      <defs>
       <path d="M 34.28125 27.484375 
Q 23.390625 27.484375 19.1875 25 
Q 14.984375 22.515625 14.984375 16.5 
Q 14.984375 11.71875 18.140625 8.90625 
Q 21.296875 6.109375 26.703125 6.109375 
Q 34.1875 6.109375 38.703125 11.40625 
Q 43.21875 16.703125 43.21875 25.484375 
L 43.21875 27.484375 
z
M 52.203125 31.203125 
L 52.203125 0 
L 43.21875 0 
L 43.21875 8.296875 
Q 40.140625 3.328125 35.546875 0.953125 
Q 30.953125 -1.421875 24.3125 -1.421875 
Q 15.921875 -1.421875 10.953125 3.296875 
Q 6 8.015625 6 15.921875 
Q 6 25.140625 12.171875 29.828125 
Q 18.359375 34.515625 30.609375 34.515625 
L 43.21875 34.515625 
L 43.21875 35.40625 
Q 43.21875 41.609375 39.140625 45 
Q 35.0625 48.390625 27.6875 48.390625 
Q 23 48.390625 18.546875 47.265625 
Q 14.109375 46.140625 10.015625 43.890625 
L 10.015625 52.203125 
Q 14.9375 54.109375 19.578125 55.046875 
Q 24.21875 56 28.609375 56 
Q 40.484375 56 46.34375 49.84375 
Q 52.203125 43.703125 52.203125 31.203125 
z
" id="DejaVuSans-61"/>
       <path d="M 45.40625 46.390625 
L 45.40625 75.984375 
L 54.390625 75.984375 
L 54.390625 0 
L 45.40625 0 
L 45.40625 8.203125 
Q 42.578125 3.328125 38.25 0.953125 
Q 33.9375 -1.421875 27.875 -1.421875 
Q 17.96875 -1.421875 11.734375 6.484375 
Q 5.515625 14.40625 5.515625 27.296875 
Q 5.515625 40.1875 11.734375 48.09375 
Q 17.96875 56 27.875 56 
Q 33.9375 56 38.25 53.625 
Q 42.578125 51.265625 45.40625 46.390625 
z
M 14.796875 27.296875 
Q 14.796875 17.390625 18.875 11.75 
Q 22.953125 6.109375 30.078125 6.109375 
Q 37.203125 6.109375 41.296875 11.75 
Q 45.40625 17.390625 45.40625 27.296875 
Q 45.40625 37.203125 41.296875 42.84375 
Q 37.203125 48.484375 30.078125 48.484375 
Q 22.953125 48.484375 18.875 42.84375 
Q 14.796875 37.203125 14.796875 27.296875 
z
" id="DejaVuSans-64"/>
       <path d="M 8.5 21.578125 
L 8.5 54.6875 
L 17.484375 54.6875 
L 17.484375 21.921875 
Q 17.484375 14.15625 20.5 10.265625 
Q 23.53125 6.390625 29.59375 6.390625 
Q 36.859375 6.390625 41.078125 11.03125 
Q 45.3125 15.671875 45.3125 23.6875 
L 45.3125 54.6875 
L 54.296875 54.6875 
L 54.296875 0 
L 45.3125 0 
L 45.3125 8.40625 
Q 42.046875 3.421875 37.71875 1 
Q 33.40625 -1.421875 27.6875 -1.421875 
Q 18.265625 -1.421875 13.375 4.4375 
Q 8.5 10.296875 8.5 21.578125 
z
M 31.109375 56 
z
" id="DejaVuSans-75"/>
      </defs>
      <g style="fill:#444443;" transform="translate(45.57875 37.472302)scale(0.08 -0.08)">
       <use xlink:href="#DejaVuSans-77"/>
       <use x="81.787109" xlink:href="#DejaVuSans-6f"/>
       <use x="142.96875" xlink:href="#DejaVuSans-72"/>
       <use x="184.082031" xlink:href="#DejaVuSans-73"/>
       <use x="236.181641" xlink:href="#DejaVuSans-74"/>
       <use x="275.390625" xlink:href="#DejaVuSans-20"/>
       <use x="307.177734" xlink:href="#DejaVuSans-72"/>
       <use x="348.291016" xlink:href="#DejaVuSans-61"/>
       <use x="409.570312" xlink:href="#DejaVuSans-64"/>
       <use x="473.046875" xlink:href="#DejaVuSans-69"/>
       <use x="500.830078" xlink:href="#DejaVuSans-75"/>
       <use x="564.208984" xlink:href="#DejaVuSans-73"/>
      </g>
     </g>
    </g>
    <g id="ytick_3">
     <g id="line2d_5">
      <g>
       <use style="stroke:#000000;stroke-width:0.8;" x="101.88125" xlink:href="#mbd0007fb4d" y="48.591356"/>
      </g>
     </g>
     <g id="text_5">
      <!-- worst area -->
      <g style="fill:#444443;" transform="translate(52.295 51.630731)scale(0.08 -0.08)">
       <use xlink:href="#DejaVuSans-77"/>
       <use x="81.787109" xlink:href="#DejaVuSans-6f"/>
       <use x="142.96875" xlink:href="#DejaVuSans-72"/>
       <use x="184.082031" xlink:href="#DejaVuSans-73"/>
       <use x="236.181641" xlink:href="#DejaVuSans-74"/>
       <use x="275.390625" xlink:href="#DejaVuSans-20"/>
       <use x="307.177734" xlink:href="#DejaVuSans-61"/>
       <use x="368.457031" xlink:href="#DejaVuSans-72"/>
       <use x="409.539062" xlink:href="#DejaVuSans-65"/>
       <use x="471.0625" xlink:href="#DejaVuSans-61"/>
      </g>
     </g>
    </g>
    <g id="ytick_4">
     <g id="line2d_6">
      <g>
       <use style="stroke:#000000;stroke-width:0.8;" x="101.88125" xlink:href="#mbd0007fb4d" y="62.749785"/>
      </g>
     </g>
     <g id="text_6">
      <!-- worst concave points -->
      <defs>
       <path d="M 48.78125 52.59375 
L 48.78125 44.1875 
Q 44.96875 46.296875 41.140625 47.34375 
Q 37.3125 48.390625 33.40625 48.390625 
Q 24.65625 48.390625 19.8125 42.84375 
Q 14.984375 37.3125 14.984375 27.296875 
Q 14.984375 17.28125 19.8125 11.734375 
Q 24.65625 6.203125 33.40625 6.203125 
Q 37.3125 6.203125 41.140625 7.25 
Q 44.96875 8.296875 48.78125 10.40625 
L 48.78125 2.09375 
Q 45.015625 0.34375 40.984375 -0.53125 
Q 36.96875 -1.421875 32.421875 -1.421875 
Q 20.0625 -1.421875 12.78125 6.34375 
Q 5.515625 14.109375 5.515625 27.296875 
Q 5.515625 40.671875 12.859375 48.328125 
Q 20.21875 56 33.015625 56 
Q 37.15625 56 41.109375 55.140625 
Q 45.0625 54.296875 48.78125 52.59375 
z
" id="DejaVuSans-63"/>
       <path d="M 54.890625 33.015625 
L 54.890625 0 
L 45.90625 0 
L 45.90625 32.71875 
Q 45.90625 40.484375 42.875 44.328125 
Q 39.84375 48.1875 33.796875 48.1875 
Q 26.515625 48.1875 22.3125 43.546875 
Q 18.109375 38.921875 18.109375 30.90625 
L 18.109375 0 
L 9.078125 0 
L 9.078125 54.6875 
L 18.109375 54.6875 
L 18.109375 46.1875 
Q 21.34375 51.125 25.703125 53.5625 
Q 30.078125 56 35.796875 56 
Q 45.21875 56 50.046875 50.171875 
Q 54.890625 44.34375 54.890625 33.015625 
z
" id="DejaVuSans-6e"/>
       <path d="M 2.984375 54.6875 
L 12.5 54.6875 
L 29.59375 8.796875 
L 46.6875 54.6875 
L 56.203125 54.6875 
L 35.6875 0 
L 23.484375 0 
z
" id="DejaVuSans-76"/>
      </defs>
      <g style="fill:#444443;" transform="translate(9.87375 65.78916)scale(0.08 -0.08)">
       <use xlink:href="#DejaVuSans-77"/>
       <use x="81.787109" xlink:href="#DejaVuSans-6f"/>
       <use x="142.96875" xlink:href="#DejaVuSans-72"/>
       <use x="184.082031" xlink:href="#DejaVuSans-73"/>
       <use x="236.181641" xlink:href="#DejaVuSans-74"/>
       <use x="275.390625" xlink:href="#DejaVuSans-20"/>
       <use x="307.177734" xlink:href="#DejaVuSans-63"/>
       <use x="362.158203" xlink:href="#DejaVuSans-6f"/>
       <use x="423.339844" xlink:href="#DejaVuSans-6e"/>
       <use x="486.71875" xlink:href="#DejaVuSans-63"/>
       <use x="541.699219" xlink:href="#DejaVuSans-61"/>
       <use x="602.978516" xlink:href="#DejaVuSans-76"/>
       <use x="662.158203" xlink:href="#DejaVuSans-65"/>
       <use x="723.681641" xlink:href="#DejaVuSans-20"/>
       <use x="755.46875" xlink:href="#DejaVuSans-70"/>
       <use x="818.945312" xlink:href="#DejaVuSans-6f"/>
       <use x="880.126953" xlink:href="#DejaVuSans-69"/>
       <use x="907.910156" xlink:href="#DejaVuSans-6e"/>
       <use x="971.289062" xlink:href="#DejaVuSans-74"/>
       <use x="1010.498047" xlink:href="#DejaVuSans-73"/>
      </g>
     </g>
    </g>
    <g id="ytick_5">
     <g id="line2d_7">
      <g>
       <use style="stroke:#000000;stroke-width:0.8;" x="101.88125" xlink:href="#mbd0007fb4d" y="76.908214"/>
      </g>
     </g>
     <g id="text_7">
      <!-- mean concave points -->
      <g style="fill:#444443;" transform="translate(9.21625 79.947589)scale(0.08 -0.08)">
       <use xlink:href="#DejaVuSans-6d"/>
       <use x="97.412109" xlink:href="#DejaVuSans-65"/>
       <use x="158.935547" xlink:href="#DejaVuSans-61"/>
       <use x="220.214844" xlink:href="#DejaVuSans-6e"/>
       <use x="283.59375" xlink:href="#DejaVuSans-20"/>
       <use x="315.380859" xlink:href="#DejaVuSans-63"/>
       <use x="370.361328" xlink:href="#DejaVuSans-6f"/>
       <use x="431.542969" xlink:href="#DejaVuSans-6e"/>
       <use x="494.921875" xlink:href="#DejaVuSans-63"/>
       <use x="549.902344" xlink:href="#DejaVuSans-61"/>
       <use x="611.181641" xlink:href="#DejaVuSans-76"/>
       <use x="670.361328" xlink:href="#DejaVuSans-65"/>
       <use x="731.884766" xlink:href="#DejaVuSans-20"/>
       <use x="763.671875" xlink:href="#DejaVuSans-70"/>
       <use x="827.148438" xlink:href="#DejaVuSans-6f"/>
       <use x="888.330078" xlink:href="#DejaVuSans-69"/>
       <use x="916.113281" xlink:href="#DejaVuSans-6e"/>
       <use x="979.492188" xlink:href="#DejaVuSans-74"/>
       <use x="1018.701172" xlink:href="#DejaVuSans-73"/>
      </g>
     </g>
    </g>
    <g id="ytick_6">
     <g id="line2d_8">
      <g>
       <use style="stroke:#000000;stroke-width:0.8;" x="101.88125" xlink:href="#mbd0007fb4d" y="91.066643"/>
      </g>
     </g>
     <g id="text_8">
      <!-- area error -->
      <g style="fill:#444443;" transform="translate(54.645 94.106018)scale(0.08 -0.08)">
       <use xlink:href="#DejaVuSans-61"/>
       <use x="61.279297" xlink:href="#DejaVuSans-72"/>
       <use x="102.361328" xlink:href="#DejaVuSans-65"/>
       <use x="163.884766" xlink:href="#DejaVuSans-61"/>
       <use x="225.164062" xlink:href="#DejaVuSans-20"/>
       <use x="256.951172" xlink:href="#DejaVuSans-65"/>
       <use x="318.474609" xlink:href="#DejaVuSans-72"/>
       <use x="359.572266" xlink:href="#DejaVuSans-72"/>
       <use x="400.654297" xlink:href="#DejaVuSans-6f"/>
       <use x="461.835938" xlink:href="#DejaVuSans-72"/>
      </g>
     </g>
    </g>
    <g id="ytick_7">
     <g id="line2d_9">
      <g>
       <use style="stroke:#000000;stroke-width:0.8;" x="101.88125" xlink:href="#mbd0007fb4d" y="105.225072"/>
      </g>
     </g>
     <g id="text_9">
      <!-- mean area -->
      <g style="fill:#444443;" transform="translate(51.6375 108.264447)scale(0.08 -0.08)">
       <use xlink:href="#DejaVuSans-6d"/>
       <use x="97.412109" xlink:href="#DejaVuSans-65"/>
       <use x="158.935547" xlink:href="#DejaVuSans-61"/>
       <use x="220.214844" xlink:href="#DejaVuSans-6e"/>
       <use x="283.59375" xlink:href="#DejaVuSans-20"/>
       <use x="315.380859" xlink:href="#DejaVuSans-61"/>
       <use x="376.660156" xlink:href="#DejaVuSans-72"/>
       <use x="417.742188" xlink:href="#DejaVuSans-65"/>
       <use x="479.265625" xlink:href="#DejaVuSans-61"/>
      </g>
     </g>
    </g>
    <g id="ytick_8">
     <g id="line2d_10">
      <g>
       <use style="stroke:#000000;stroke-width:0.8;" x="101.88125" xlink:href="#mbd0007fb4d" y="119.383501"/>
      </g>
     </g>
     <g id="text_10">
      <!-- mean perimeter -->
      <g style="fill:#444443;" transform="translate(30.07625 122.422876)scale(0.08 -0.08)">
       <use xlink:href="#DejaVuSans-6d"/>
       <use x="97.412109" xlink:href="#DejaVuSans-65"/>
       <use x="158.935547" xlink:href="#DejaVuSans-61"/>
       <use x="220.214844" xlink:href="#DejaVuSans-6e"/>
       <use x="283.59375" xlink:href="#DejaVuSans-20"/>
       <use x="315.380859" xlink:href="#DejaVuSans-70"/>
       <use x="378.857422" xlink:href="#DejaVuSans-65"/>
       <use x="440.380859" xlink:href="#DejaVuSans-72"/>
       <use x="481.494141" xlink:href="#DejaVuSans-69"/>
       <use x="509.277344" xlink:href="#DejaVuSans-6d"/>
       <use x="606.689453" xlink:href="#DejaVuSans-65"/>
       <use x="668.212891" xlink:href="#DejaVuSans-74"/>
       <use x="707.421875" xlink:href="#DejaVuSans-65"/>
       <use x="768.945312" xlink:href="#DejaVuSans-72"/>
      </g>
     </g>
    </g>
    <g id="ytick_9">
     <g id="line2d_11">
      <g>
       <use style="stroke:#000000;stroke-width:0.8;" x="101.88125" xlink:href="#mbd0007fb4d" y="133.54193"/>
      </g>
     </g>
     <g id="text_11">
      <!-- mean concavity -->
      <defs>
       <path d="M 32.171875 -5.078125 
Q 28.375 -14.84375 24.75 -17.8125 
Q 21.140625 -20.796875 15.09375 -20.796875 
L 7.90625 -20.796875 
L 7.90625 -13.28125 
L 13.1875 -13.28125 
Q 16.890625 -13.28125 18.9375 -11.515625 
Q 21 -9.765625 23.484375 -3.21875 
L 25.09375 0.875 
L 2.984375 54.6875 
L 12.5 54.6875 
L 29.59375 11.921875 
L 46.6875 54.6875 
L 56.203125 54.6875 
z
" id="DejaVuSans-79"/>
      </defs>
      <g style="fill:#444443;" transform="translate(31.1575 136.581305)scale(0.08 -0.08)">
       <use xlink:href="#DejaVuSans-6d"/>
       <use x="97.412109" xlink:href="#DejaVuSans-65"/>
       <use x="158.935547" xlink:href="#DejaVuSans-61"/>
       <use x="220.214844" xlink:href="#DejaVuSans-6e"/>
       <use x="283.59375" xlink:href="#DejaVuSans-20"/>
       <use x="315.380859" xlink:href="#DejaVuSans-63"/>
       <use x="370.361328" xlink:href="#DejaVuSans-6f"/>
       <use x="431.542969" xlink:href="#DejaVuSans-6e"/>
       <use x="494.921875" xlink:href="#DejaVuSans-63"/>
       <use x="549.902344" xlink:href="#DejaVuSans-61"/>
       <use x="611.181641" xlink:href="#DejaVuSans-76"/>
       <use x="670.361328" xlink:href="#DejaVuSans-69"/>
       <use x="698.144531" xlink:href="#DejaVuSans-74"/>
       <use x="737.353516" xlink:href="#DejaVuSans-79"/>
      </g>
     </g>
    </g>
    <g id="ytick_10">
     <g id="line2d_12">
      <g>
       <use style="stroke:#000000;stroke-width:0.8;" x="101.88125" xlink:href="#mbd0007fb4d" y="147.700359"/>
      </g>
     </g>
     <g id="text_12">
      <!-- mean radius -->
      <g style="fill:#444443;" transform="translate(44.92125 150.739734)scale(0.08 -0.08)">
       <use xlink:href="#DejaVuSans-6d"/>
       <use x="97.412109" xlink:href="#DejaVuSans-65"/>
       <use x="158.935547" xlink:href="#DejaVuSans-61"/>
       <use x="220.214844" xlink:href="#DejaVuSans-6e"/>
       <use x="283.59375" xlink:href="#DejaVuSans-20"/>
       <use x="315.380859" xlink:href="#DejaVuSans-72"/>
       <use x="356.494141" xlink:href="#DejaVuSans-61"/>
       <use x="417.773438" xlink:href="#DejaVuSans-64"/>
       <use x="481.25" xlink:href="#DejaVuSans-69"/>
       <use x="509.033203" xlink:href="#DejaVuSans-75"/>
       <use x="572.412109" xlink:href="#DejaVuSans-73"/>
      </g>
     </g>
    </g>
    <g id="ytick_11">
     <g id="line2d_13">
      <g>
       <use style="stroke:#000000;stroke-width:0.8;" x="101.88125" xlink:href="#mbd0007fb4d" y="161.858788"/>
      </g>
     </g>
     <g id="text_13">
      <!-- worst concavity -->
      <g style="fill:#444443;" transform="translate(31.815 164.898163)scale(0.08 -0.08)">
       <use xlink:href="#DejaVuSans-77"/>
       <use x="81.787109" xlink:href="#DejaVuSans-6f"/>
       <use x="142.96875" xlink:href="#DejaVuSans-72"/>
       <use x="184.082031" xlink:href="#DejaVuSans-73"/>
       <use x="236.181641" xlink:href="#DejaVuSans-74"/>
       <use x="275.390625" xlink:href="#DejaVuSans-20"/>
       <use x="307.177734" xlink:href="#DejaVuSans-63"/>
       <use x="362.158203" xlink:href="#DejaVuSans-6f"/>
       <use x="423.339844" xlink:href="#DejaVuSans-6e"/>
       <use x="486.71875" xlink:href="#DejaVuSans-63"/>
       <use x="541.699219" xlink:href="#DejaVuSans-61"/>
       <use x="602.978516" xlink:href="#DejaVuSans-76"/>
       <use x="662.158203" xlink:href="#DejaVuSans-69"/>
       <use x="689.941406" xlink:href="#DejaVuSans-74"/>
       <use x="729.150391" xlink:href="#DejaVuSans-79"/>
      </g>
     </g>
    </g>
    <g id="ytick_12">
     <g id="line2d_14">
      <g>
       <use style="stroke:#000000;stroke-width:0.8;" x="101.88125" xlink:href="#mbd0007fb4d" y="176.017217"/>
      </g>
     </g>
     <g id="text_14">
      <!-- worst smoothness -->
      <defs>
       <path d="M 54.890625 33.015625 
L 54.890625 0 
L 45.90625 0 
L 45.90625 32.71875 
Q 45.90625 40.484375 42.875 44.328125 
Q 39.84375 48.1875 33.796875 48.1875 
Q 26.515625 48.1875 22.3125 43.546875 
Q 18.109375 38.921875 18.109375 30.90625 
L 18.109375 0 
L 9.078125 0 
L 9.078125 75.984375 
L 18.109375 75.984375 
L 18.109375 46.1875 
Q 21.34375 51.125 25.703125 53.5625 
Q 30.078125 56 35.796875 56 
Q 45.21875 56 50.046875 50.171875 
Q 54.890625 44.34375 54.890625 33.015625 
z
" id="DejaVuSans-68"/>
      </defs>
      <g style="fill:#444443;" transform="translate(22.025 179.056592)scale(0.08 -0.08)">
       <use xlink:href="#DejaVuSans-77"/>
       <use x="81.787109" xlink:href="#DejaVuSans-6f"/>
       <use x="142.96875" xlink:href="#DejaVuSans-72"/>
       <use x="184.082031" xlink:href="#DejaVuSans-73"/>
       <use x="236.181641" xlink:href="#DejaVuSans-74"/>
       <use x="275.390625" xlink:href="#DejaVuSans-20"/>
       <use x="307.177734" xlink:href="#DejaVuSans-73"/>
       <use x="359.277344" xlink:href="#DejaVuSans-6d"/>
       <use x="456.689453" xlink:href="#DejaVuSans-6f"/>
       <use x="517.871094" xlink:href="#DejaVuSans-6f"/>
       <use x="579.052734" xlink:href="#DejaVuSans-74"/>
       <use x="618.261719" xlink:href="#DejaVuSans-68"/>
       <use x="681.640625" xlink:href="#DejaVuSans-6e"/>
       <use x="745.019531" xlink:href="#DejaVuSans-65"/>
       <use x="806.542969" xlink:href="#DejaVuSans-73"/>
       <use x="858.642578" xlink:href="#DejaVuSans-73"/>
      </g>
     </g>
    </g>
    <g id="ytick_13">
     <g id="line2d_15">
      <g>
       <use style="stroke:#000000;stroke-width:0.8;" x="101.88125" xlink:href="#mbd0007fb4d" y="190.175646"/>
      </g>
     </g>
     <g id="text_15">
      <!-- worst texture -->
      <defs>
       <path d="M 54.890625 54.6875 
L 35.109375 28.078125 
L 55.90625 0 
L 45.3125 0 
L 29.390625 21.484375 
L 13.484375 0 
L 2.875 0 
L 24.125 28.609375 
L 4.6875 54.6875 
L 15.28125 54.6875 
L 29.78125 35.203125 
L 44.28125 54.6875 
z
" id="DejaVuSans-78"/>
      </defs>
      <g style="fill:#444443;" transform="translate(41.10125 193.215021)scale(0.08 -0.08)">
       <use xlink:href="#DejaVuSans-77"/>
       <use x="81.787109" xlink:href="#DejaVuSans-6f"/>
       <use x="142.96875" xlink:href="#DejaVuSans-72"/>
       <use x="184.082031" xlink:href="#DejaVuSans-73"/>
       <use x="236.181641" xlink:href="#DejaVuSans-74"/>
       <use x="275.390625" xlink:href="#DejaVuSans-20"/>
       <use x="307.177734" xlink:href="#DejaVuSans-74"/>
       <use x="346.386719" xlink:href="#DejaVuSans-65"/>
       <use x="407.894531" xlink:href="#DejaVuSans-78"/>
       <use x="467.074219" xlink:href="#DejaVuSans-74"/>
       <use x="506.283203" xlink:href="#DejaVuSans-75"/>
       <use x="569.662109" xlink:href="#DejaVuSans-72"/>
       <use x="610.744141" xlink:href="#DejaVuSans-65"/>
      </g>
     </g>
    </g>
    <g id="ytick_14">
     <g id="line2d_16">
      <g>
       <use style="stroke:#000000;stroke-width:0.8;" x="101.88125" xlink:href="#mbd0007fb4d" y="204.334075"/>
      </g>
     </g>
     <g id="text_16">
      <!-- worst compactness -->
      <g style="fill:#444443;" transform="translate(17.37875 207.37345)scale(0.08 -0.08)">
       <use xlink:href="#DejaVuSans-77"/>
       <use x="81.787109" xlink:href="#DejaVuSans-6f"/>
       <use x="142.96875" xlink:href="#DejaVuSans-72"/>
       <use x="184.082031" xlink:href="#DejaVuSans-73"/>
       <use x="236.181641" xlink:href="#DejaVuSans-74"/>
       <use x="275.390625" xlink:href="#DejaVuSans-20"/>
       <use x="307.177734" xlink:href="#DejaVuSans-63"/>
       <use x="362.158203" xlink:href="#DejaVuSans-6f"/>
       <use x="423.339844" xlink:href="#DejaVuSans-6d"/>
       <use x="520.751953" xlink:href="#DejaVuSans-70"/>
       <use x="584.228516" xlink:href="#DejaVuSans-61"/>
       <use x="645.507812" xlink:href="#DejaVuSans-63"/>
       <use x="700.488281" xlink:href="#DejaVuSans-74"/>
       <use x="739.697266" xlink:href="#DejaVuSans-6e"/>
       <use x="803.076172" xlink:href="#DejaVuSans-65"/>
       <use x="864.599609" xlink:href="#DejaVuSans-73"/>
       <use x="916.699219" xlink:href="#DejaVuSans-73"/>
      </g>
     </g>
    </g>
    <g id="ytick_15">
     <g id="line2d_17">
      <g>
       <use style="stroke:#000000;stroke-width:0.8;" x="101.88125" xlink:href="#mbd0007fb4d" y="218.492504"/>
      </g>
     </g>
     <g id="text_17">
      <!-- mean texture -->
      <g style="fill:#444443;" transform="translate(40.44375 221.531879)scale(0.08 -0.08)">
       <use xlink:href="#DejaVuSans-6d"/>
       <use x="97.412109" xlink:href="#DejaVuSans-65"/>
       <use x="158.935547" xlink:href="#DejaVuSans-61"/>
       <use x="220.214844" xlink:href="#DejaVuSans-6e"/>
       <use x="283.59375" xlink:href="#DejaVuSans-20"/>
       <use x="315.380859" xlink:href="#DejaVuSans-74"/>
       <use x="354.589844" xlink:href="#DejaVuSans-65"/>
       <use x="416.097656" xlink:href="#DejaVuSans-78"/>
       <use x="475.277344" xlink:href="#DejaVuSans-74"/>
       <use x="514.486328" xlink:href="#DejaVuSans-75"/>
       <use x="577.865234" xlink:href="#DejaVuSans-72"/>
       <use x="618.947266" xlink:href="#DejaVuSans-65"/>
      </g>
     </g>
    </g>
    <g id="ytick_16">
     <g id="line2d_18">
      <g>
       <use style="stroke:#000000;stroke-width:0.8;" x="101.88125" xlink:href="#mbd0007fb4d" y="232.650933"/>
      </g>
     </g>
     <g id="text_18">
      <!-- radius error -->
      <g style="fill:#444443;" transform="translate(47.92875 235.690308)scale(0.08 -0.08)">
       <use xlink:href="#DejaVuSans-72"/>
       <use x="41.113281" xlink:href="#DejaVuSans-61"/>
       <use x="102.392578" xlink:href="#DejaVuSans-64"/>
       <use x="165.869141" xlink:href="#DejaVuSans-69"/>
       <use x="193.652344" xlink:href="#DejaVuSans-75"/>
       <use x="257.03125" xlink:href="#DejaVuSans-73"/>
       <use x="309.130859" xlink:href="#DejaVuSans-20"/>
       <use x="340.917969" xlink:href="#DejaVuSans-65"/>
       <use x="402.441406" xlink:href="#DejaVuSans-72"/>
       <use x="443.539062" xlink:href="#DejaVuSans-72"/>
       <use x="484.621094" xlink:href="#DejaVuSans-6f"/>
       <use x="545.802734" xlink:href="#DejaVuSans-72"/>
      </g>
     </g>
    </g>
    <g id="ytick_17">
     <g id="line2d_19">
      <g>
       <use style="stroke:#000000;stroke-width:0.8;" x="101.88125" xlink:href="#mbd0007fb4d" y="246.809362"/>
      </g>
     </g>
     <g id="text_19">
      <!-- mean compactness -->
      <g style="fill:#444443;" transform="translate(16.72125 249.848737)scale(0.08 -0.08)">
       <use xlink:href="#DejaVuSans-6d"/>
       <use x="97.412109" xlink:href="#DejaVuSans-65"/>
       <use x="158.935547" xlink:href="#DejaVuSans-61"/>
       <use x="220.214844" xlink:href="#DejaVuSans-6e"/>
       <use x="283.59375" xlink:href="#DejaVuSans-20"/>
       <use x="315.380859" xlink:href="#DejaVuSans-63"/>
       <use x="370.361328" xlink:href="#DejaVuSans-6f"/>
       <use x="431.542969" xlink:href="#DejaVuSans-6d"/>
       <use x="528.955078" xlink:href="#DejaVuSans-70"/>
       <use x="592.431641" xlink:href="#DejaVuSans-61"/>
       <use x="653.710938" xlink:href="#DejaVuSans-63"/>
       <use x="708.691406" xlink:href="#DejaVuSans-74"/>
       <use x="747.900391" xlink:href="#DejaVuSans-6e"/>
       <use x="811.279297" xlink:href="#DejaVuSans-65"/>
       <use x="872.802734" xlink:href="#DejaVuSans-73"/>
       <use x="924.902344" xlink:href="#DejaVuSans-73"/>
      </g>
     </g>
    </g>
    <g id="ytick_18">
     <g id="line2d_20">
      <g>
       <use style="stroke:#000000;stroke-width:0.8;" x="101.88125" xlink:href="#mbd0007fb4d" y="260.967791"/>
      </g>
     </g>
     <g id="text_20">
      <!-- perimeter error -->
      <g style="fill:#444443;" transform="translate(33.08375 264.007166)scale(0.08 -0.08)">
       <use xlink:href="#DejaVuSans-70"/>
       <use x="63.476562" xlink:href="#DejaVuSans-65"/>
       <use x="125" xlink:href="#DejaVuSans-72"/>
       <use x="166.113281" xlink:href="#DejaVuSans-69"/>
       <use x="193.896484" xlink:href="#DejaVuSans-6d"/>
       <use x="291.308594" xlink:href="#DejaVuSans-65"/>
       <use x="352.832031" xlink:href="#DejaVuSans-74"/>
       <use x="392.041016" xlink:href="#DejaVuSans-65"/>
       <use x="453.564453" xlink:href="#DejaVuSans-72"/>
       <use x="494.677734" xlink:href="#DejaVuSans-20"/>
       <use x="526.464844" xlink:href="#DejaVuSans-65"/>
       <use x="587.988281" xlink:href="#DejaVuSans-72"/>
       <use x="629.085938" xlink:href="#DejaVuSans-72"/>
       <use x="670.167969" xlink:href="#DejaVuSans-6f"/>
       <use x="731.349609" xlink:href="#DejaVuSans-72"/>
      </g>
     </g>
    </g>
    <g id="ytick_19">
     <g id="line2d_21">
      <g>
       <use style="stroke:#000000;stroke-width:0.8;" x="101.88125" xlink:href="#mbd0007fb4d" y="275.12622"/>
      </g>
     </g>
     <g id="text_21">
      <!-- worst symmetry -->
      <g style="fill:#444443;" transform="translate(29.73875 278.165595)scale(0.08 -0.08)">
       <use xlink:href="#DejaVuSans-77"/>
       <use x="81.787109" xlink:href="#DejaVuSans-6f"/>
       <use x="142.96875" xlink:href="#DejaVuSans-72"/>
       <use x="184.082031" xlink:href="#DejaVuSans-73"/>
       <use x="236.181641" xlink:href="#DejaVuSans-74"/>
       <use x="275.390625" xlink:href="#DejaVuSans-20"/>
       <use x="307.177734" xlink:href="#DejaVuSans-73"/>
       <use x="359.277344" xlink:href="#DejaVuSans-79"/>
       <use x="418.457031" xlink:href="#DejaVuSans-6d"/>
       <use x="515.869141" xlink:href="#DejaVuSans-6d"/>
       <use x="613.28125" xlink:href="#DejaVuSans-65"/>
       <use x="674.804688" xlink:href="#DejaVuSans-74"/>
       <use x="714.013672" xlink:href="#DejaVuSans-72"/>
       <use x="755.126953" xlink:href="#DejaVuSans-79"/>
      </g>
     </g>
    </g>
    <g id="ytick_20">
     <g id="line2d_22">
      <g>
       <use style="stroke:#000000;stroke-width:0.8;" x="101.88125" xlink:href="#mbd0007fb4d" y="289.284649"/>
      </g>
     </g>
     <g id="text_22">
      <!-- mean smoothness -->
      <g style="fill:#444443;" transform="translate(21.3675 292.324024)scale(0.08 -0.08)">
       <use xlink:href="#DejaVuSans-6d"/>
       <use x="97.412109" xlink:href="#DejaVuSans-65"/>
       <use x="158.935547" xlink:href="#DejaVuSans-61"/>
       <use x="220.214844" xlink:href="#DejaVuSans-6e"/>
       <use x="283.59375" xlink:href="#DejaVuSans-20"/>
       <use x="315.380859" xlink:href="#DejaVuSans-73"/>
       <use x="367.480469" xlink:href="#DejaVuSans-6d"/>
       <use x="464.892578" xlink:href="#DejaVuSans-6f"/>
       <use x="526.074219" xlink:href="#DejaVuSans-6f"/>
       <use x="587.255859" xlink:href="#DejaVuSans-74"/>
       <use x="626.464844" xlink:href="#DejaVuSans-68"/>
       <use x="689.84375" xlink:href="#DejaVuSans-6e"/>
       <use x="753.222656" xlink:href="#DejaVuSans-65"/>
       <use x="814.746094" xlink:href="#DejaVuSans-73"/>
       <use x="866.845703" xlink:href="#DejaVuSans-73"/>
      </g>
     </g>
    </g>
    <g id="ytick_21">
     <g id="line2d_23">
      <g>
       <use style="stroke:#000000;stroke-width:0.8;" x="101.88125" xlink:href="#mbd0007fb4d" y="303.443078"/>
      </g>
     </g>
     <g id="text_23">
      <!-- concave points error -->
      <g style="fill:#444443;" transform="translate(12.22375 306.482453)scale(0.08 -0.08)">
       <use xlink:href="#DejaVuSans-63"/>
       <use x="54.980469" xlink:href="#DejaVuSans-6f"/>
       <use x="116.162109" xlink:href="#DejaVuSans-6e"/>
       <use x="179.541016" xlink:href="#DejaVuSans-63"/>
       <use x="234.521484" xlink:href="#DejaVuSans-61"/>
       <use x="295.800781" xlink:href="#DejaVuSans-76"/>
       <use x="354.980469" xlink:href="#DejaVuSans-65"/>
       <use x="416.503906" xlink:href="#DejaVuSans-20"/>
       <use x="448.291016" xlink:href="#DejaVuSans-70"/>
       <use x="511.767578" xlink:href="#DejaVuSans-6f"/>
       <use x="572.949219" xlink:href="#DejaVuSans-69"/>
       <use x="600.732422" xlink:href="#DejaVuSans-6e"/>
       <use x="664.111328" xlink:href="#DejaVuSans-74"/>
       <use x="703.320312" xlink:href="#DejaVuSans-73"/>
       <use x="755.419922" xlink:href="#DejaVuSans-20"/>
       <use x="787.207031" xlink:href="#DejaVuSans-65"/>
       <use x="848.730469" xlink:href="#DejaVuSans-72"/>
       <use x="889.828125" xlink:href="#DejaVuSans-72"/>
       <use x="930.910156" xlink:href="#DejaVuSans-6f"/>
       <use x="992.091797" xlink:href="#DejaVuSans-72"/>
      </g>
     </g>
    </g>
    <g id="ytick_22">
     <g id="line2d_24">
      <g>
       <use style="stroke:#000000;stroke-width:0.8;" x="101.88125" xlink:href="#mbd0007fb4d" y="317.601507"/>
      </g>
     </g>
     <g id="text_24">
      <!-- compactness error -->
      <g style="fill:#444443;" transform="translate(19.72875 320.640882)scale(0.08 -0.08)">
       <use xlink:href="#DejaVuSans-63"/>
       <use x="54.980469" xlink:href="#DejaVuSans-6f"/>
       <use x="116.162109" xlink:href="#DejaVuSans-6d"/>
       <use x="213.574219" xlink:href="#DejaVuSans-70"/>
       <use x="277.050781" xlink:href="#DejaVuSans-61"/>
       <use x="338.330078" xlink:href="#DejaVuSans-63"/>
       <use x="393.310547" xlink:href="#DejaVuSans-74"/>
       <use x="432.519531" xlink:href="#DejaVuSans-6e"/>
       <use x="495.898438" xlink:href="#DejaVuSans-65"/>
       <use x="557.421875" xlink:href="#DejaVuSans-73"/>
       <use x="609.521484" xlink:href="#DejaVuSans-73"/>
       <use x="661.621094" xlink:href="#DejaVuSans-20"/>
       <use x="693.408203" xlink:href="#DejaVuSans-65"/>
       <use x="754.931641" xlink:href="#DejaVuSans-72"/>
       <use x="796.029297" xlink:href="#DejaVuSans-72"/>
       <use x="837.111328" xlink:href="#DejaVuSans-6f"/>
       <use x="898.292969" xlink:href="#DejaVuSans-72"/>
      </g>
     </g>
    </g>
    <g id="ytick_23">
     <g id="line2d_25">
      <g>
       <use style="stroke:#000000;stroke-width:0.8;" x="101.88125" xlink:href="#mbd0007fb4d" y="331.759936"/>
      </g>
     </g>
     <g id="text_25">
      <!-- smoothness error -->
      <g style="fill:#444443;" transform="translate(24.375 334.799311)scale(0.08 -0.08)">
       <use xlink:href="#DejaVuSans-73"/>
       <use x="52.099609" xlink:href="#DejaVuSans-6d"/>
       <use x="149.511719" xlink:href="#DejaVuSans-6f"/>
       <use x="210.693359" xlink:href="#DejaVuSans-6f"/>
       <use x="271.875" xlink:href="#DejaVuSans-74"/>
       <use x="311.083984" xlink:href="#DejaVuSans-68"/>
       <use x="374.462891" xlink:href="#DejaVuSans-6e"/>
       <use x="437.841797" xlink:href="#DejaVuSans-65"/>
       <use x="499.365234" xlink:href="#DejaVuSans-73"/>
       <use x="551.464844" xlink:href="#DejaVuSans-73"/>
       <use x="603.564453" xlink:href="#DejaVuSans-20"/>
       <use x="635.351562" xlink:href="#DejaVuSans-65"/>
       <use x="696.875" xlink:href="#DejaVuSans-72"/>
       <use x="737.972656" xlink:href="#DejaVuSans-72"/>
       <use x="779.054688" xlink:href="#DejaVuSans-6f"/>
       <use x="840.236328" xlink:href="#DejaVuSans-72"/>
      </g>
     </g>
    </g>
    <g id="ytick_24">
     <g id="line2d_26">
      <g>
       <use style="stroke:#000000;stroke-width:0.8;" x="101.88125" xlink:href="#mbd0007fb4d" y="345.918365"/>
      </g>
     </g>
     <g id="text_26">
      <!-- worst fractal dimension -->
      <defs>
       <path d="M 37.109375 75.984375 
L 37.109375 68.5 
L 28.515625 68.5 
Q 23.6875 68.5 21.796875 66.546875 
Q 19.921875 64.59375 19.921875 59.515625 
L 19.921875 54.6875 
L 34.71875 54.6875 
L 34.71875 47.703125 
L 19.921875 47.703125 
L 19.921875 0 
L 10.890625 0 
L 10.890625 47.703125 
L 2.296875 47.703125 
L 2.296875 54.6875 
L 10.890625 54.6875 
L 10.890625 58.5 
Q 10.890625 67.625 15.140625 71.796875 
Q 19.390625 75.984375 28.609375 75.984375 
z
" id="DejaVuSans-66"/>
       <path d="M 9.421875 75.984375 
L 18.40625 75.984375 
L 18.40625 0 
L 9.421875 0 
z
" id="DejaVuSans-6c"/>
      </defs>
      <g style="fill:#444443;" transform="translate(0.6575 348.95774)scale(0.08 -0.08)">
       <use xlink:href="#DejaVuSans-77"/>
       <use x="81.787109" xlink:href="#DejaVuSans-6f"/>
       <use x="142.96875" xlink:href="#DejaVuSans-72"/>
       <use x="184.082031" xlink:href="#DejaVuSans-73"/>
       <use x="236.181641" xlink:href="#DejaVuSans-74"/>
       <use x="275.390625" xlink:href="#DejaVuSans-20"/>
       <use x="307.177734" xlink:href="#DejaVuSans-66"/>
       <use x="342.382812" xlink:href="#DejaVuSans-72"/>
       <use x="383.496094" xlink:href="#DejaVuSans-61"/>
       <use x="444.775391" xlink:href="#DejaVuSans-63"/>
       <use x="499.755859" xlink:href="#DejaVuSans-74"/>
       <use x="538.964844" xlink:href="#DejaVuSans-61"/>
       <use x="600.244141" xlink:href="#DejaVuSans-6c"/>
       <use x="628.027344" xlink:href="#DejaVuSans-20"/>
       <use x="659.814453" xlink:href="#DejaVuSans-64"/>
       <use x="723.291016" xlink:href="#DejaVuSans-69"/>
       <use x="751.074219" xlink:href="#DejaVuSans-6d"/>
       <use x="848.486328" xlink:href="#DejaVuSans-65"/>
       <use x="910.009766" xlink:href="#DejaVuSans-6e"/>
       <use x="973.388672" xlink:href="#DejaVuSans-73"/>
       <use x="1025.488281" xlink:href="#DejaVuSans-69"/>
       <use x="1053.271484" xlink:href="#DejaVuSans-6f"/>
       <use x="1114.453125" xlink:href="#DejaVuSans-6e"/>
      </g>
     </g>
    </g>
    <g id="ytick_25">
     <g id="line2d_27">
      <g>
       <use style="stroke:#000000;stroke-width:0.8;" x="101.88125" xlink:href="#mbd0007fb4d" y="360.076794"/>
      </g>
     </g>
     <g id="text_27">
      <!-- fractal dimension error -->
      <g style="fill:#444443;" transform="translate(3.0075 363.116169)scale(0.08 -0.08)">
       <use xlink:href="#DejaVuSans-66"/>
       <use x="35.205078" xlink:href="#DejaVuSans-72"/>
       <use x="76.318359" xlink:href="#DejaVuSans-61"/>
       <use x="137.597656" xlink:href="#DejaVuSans-63"/>
       <use x="192.578125" xlink:href="#DejaVuSans-74"/>
       <use x="231.787109" xlink:href="#DejaVuSans-61"/>
       <use x="293.066406" xlink:href="#DejaVuSans-6c"/>
       <use x="320.849609" xlink:href="#DejaVuSans-20"/>
       <use x="352.636719" xlink:href="#DejaVuSans-64"/>
       <use x="416.113281" xlink:href="#DejaVuSans-69"/>
       <use x="443.896484" xlink:href="#DejaVuSans-6d"/>
       <use x="541.308594" xlink:href="#DejaVuSans-65"/>
       <use x="602.832031" xlink:href="#DejaVuSans-6e"/>
       <use x="666.210938" xlink:href="#DejaVuSans-73"/>
       <use x="718.310547" xlink:href="#DejaVuSans-69"/>
       <use x="746.09375" xlink:href="#DejaVuSans-6f"/>
       <use x="807.275391" xlink:href="#DejaVuSans-6e"/>
       <use x="870.654297" xlink:href="#DejaVuSans-20"/>
       <use x="902.441406" xlink:href="#DejaVuSans-65"/>
       <use x="963.964844" xlink:href="#DejaVuSans-72"/>
       <use x="1005.0625" xlink:href="#DejaVuSans-72"/>
       <use x="1046.144531" xlink:href="#DejaVuSans-6f"/>
       <use x="1107.326172" xlink:href="#DejaVuSans-72"/>
      </g>
     </g>
    </g>
    <g id="ytick_26">
     <g id="line2d_28">
      <g>
       <use style="stroke:#000000;stroke-width:0.8;" x="101.88125" xlink:href="#mbd0007fb4d" y="374.235223"/>
      </g>
     </g>
     <g id="text_28">
      <!-- concavity error -->
      <g style="fill:#444443;" transform="translate(34.165 377.274598)scale(0.08 -0.08)">
       <use xlink:href="#DejaVuSans-63"/>
       <use x="54.980469" xlink:href="#DejaVuSans-6f"/>
       <use x="116.162109" xlink:href="#DejaVuSans-6e"/>
       <use x="179.541016" xlink:href="#DejaVuSans-63"/>
       <use x="234.521484" xlink:href="#DejaVuSans-61"/>
       <use x="295.800781" xlink:href="#DejaVuSans-76"/>
       <use x="354.980469" xlink:href="#DejaVuSans-69"/>
       <use x="382.763672" xlink:href="#DejaVuSans-74"/>
       <use x="421.972656" xlink:href="#DejaVuSans-79"/>
       <use x="481.152344" xlink:href="#DejaVuSans-20"/>
       <use x="512.939453" xlink:href="#DejaVuSans-65"/>
       <use x="574.462891" xlink:href="#DejaVuSans-72"/>
       <use x="615.560547" xlink:href="#DejaVuSans-72"/>
       <use x="656.642578" xlink:href="#DejaVuSans-6f"/>
       <use x="717.824219" xlink:href="#DejaVuSans-72"/>
      </g>
     </g>
    </g>
    <g id="ytick_27">
     <g id="line2d_29">
      <g>
       <use style="stroke:#000000;stroke-width:0.8;" x="101.88125" xlink:href="#mbd0007fb4d" y="388.393652"/>
      </g>
     </g>
     <g id="text_29">
      <!-- mean fractal dimension -->
      <g style="fill:#444443;" transform="translate(0 391.433027)scale(0.08 -0.08)">
       <use xlink:href="#DejaVuSans-6d"/>
       <use x="97.412109" xlink:href="#DejaVuSans-65"/>
       <use x="158.935547" xlink:href="#DejaVuSans-61"/>
       <use x="220.214844" xlink:href="#DejaVuSans-6e"/>
       <use x="283.59375" xlink:href="#DejaVuSans-20"/>
       <use x="315.380859" xlink:href="#DejaVuSans-66"/>
       <use x="350.585938" xlink:href="#DejaVuSans-72"/>
       <use x="391.699219" xlink:href="#DejaVuSans-61"/>
       <use x="452.978516" xlink:href="#DejaVuSans-63"/>
       <use x="507.958984" xlink:href="#DejaVuSans-74"/>
       <use x="547.167969" xlink:href="#DejaVuSans-61"/>
       <use x="608.447266" xlink:href="#DejaVuSans-6c"/>
       <use x="636.230469" xlink:href="#DejaVuSans-20"/>
       <use x="668.017578" xlink:href="#DejaVuSans-64"/>
       <use x="731.494141" xlink:href="#DejaVuSans-69"/>
       <use x="759.277344" xlink:href="#DejaVuSans-6d"/>
       <use x="856.689453" xlink:href="#DejaVuSans-65"/>
       <use x="918.212891" xlink:href="#DejaVuSans-6e"/>
       <use x="981.591797" xlink:href="#DejaVuSans-73"/>
       <use x="1033.691406" xlink:href="#DejaVuSans-69"/>
       <use x="1061.474609" xlink:href="#DejaVuSans-6f"/>
       <use x="1122.65625" xlink:href="#DejaVuSans-6e"/>
      </g>
     </g>
    </g>
    <g id="ytick_28">
     <g id="line2d_30">
      <g>
       <use style="stroke:#000000;stroke-width:0.8;" x="101.88125" xlink:href="#mbd0007fb4d" y="402.552081"/>
      </g>
     </g>
     <g id="text_30">
      <!-- mean symmetry -->
      <g style="fill:#444443;" transform="translate(29.08125 405.591456)scale(0.08 -0.08)">
       <use xlink:href="#DejaVuSans-6d"/>
       <use x="97.412109" xlink:href="#DejaVuSans-65"/>
       <use x="158.935547" xlink:href="#DejaVuSans-61"/>
       <use x="220.214844" xlink:href="#DejaVuSans-6e"/>
       <use x="283.59375" xlink:href="#DejaVuSans-20"/>
       <use x="315.380859" xlink:href="#DejaVuSans-73"/>
       <use x="367.480469" xlink:href="#DejaVuSans-79"/>
       <use x="426.660156" xlink:href="#DejaVuSans-6d"/>
       <use x="524.072266" xlink:href="#DejaVuSans-6d"/>
       <use x="621.484375" xlink:href="#DejaVuSans-65"/>
       <use x="683.007812" xlink:href="#DejaVuSans-74"/>
       <use x="722.216797" xlink:href="#DejaVuSans-72"/>
       <use x="763.330078" xlink:href="#DejaVuSans-79"/>
      </g>
     </g>
    </g>
    <g id="ytick_29">
     <g id="line2d_31">
      <g>
       <use style="stroke:#000000;stroke-width:0.8;" x="101.88125" xlink:href="#mbd0007fb4d" y="416.71051"/>
      </g>
     </g>
     <g id="text_31">
      <!-- texture error -->
      <g style="fill:#444443;" transform="translate(43.45125 419.749885)scale(0.08 -0.08)">
       <use xlink:href="#DejaVuSans-74"/>
       <use x="39.208984" xlink:href="#DejaVuSans-65"/>
       <use x="100.716797" xlink:href="#DejaVuSans-78"/>
       <use x="159.896484" xlink:href="#DejaVuSans-74"/>
       <use x="199.105469" xlink:href="#DejaVuSans-75"/>
       <use x="262.484375" xlink:href="#DejaVuSans-72"/>
       <use x="303.566406" xlink:href="#DejaVuSans-65"/>
       <use x="365.089844" xlink:href="#DejaVuSans-20"/>
       <use x="396.876953" xlink:href="#DejaVuSans-65"/>
       <use x="458.400391" xlink:href="#DejaVuSans-72"/>
       <use x="499.498047" xlink:href="#DejaVuSans-72"/>
       <use x="540.580078" xlink:href="#DejaVuSans-6f"/>
       <use x="601.761719" xlink:href="#DejaVuSans-72"/>
      </g>
     </g>
    </g>
    <g id="ytick_30">
     <g id="line2d_32">
      <g>
       <use style="stroke:#000000;stroke-width:0.8;" x="101.88125" xlink:href="#mbd0007fb4d" y="430.868939"/>
      </g>
     </g>
     <g id="text_32">
      <!-- symmetry error -->
      <g style="fill:#444443;" transform="translate(32.08875 433.908314)scale(0.08 -0.08)">
       <use xlink:href="#DejaVuSans-73"/>
       <use x="52.099609" xlink:href="#DejaVuSans-79"/>
       <use x="111.279297" xlink:href="#DejaVuSans-6d"/>
       <use x="208.691406" xlink:href="#DejaVuSans-6d"/>
       <use x="306.103516" xlink:href="#DejaVuSans-65"/>
       <use x="367.626953" xlink:href="#DejaVuSans-74"/>
       <use x="406.835938" xlink:href="#DejaVuSans-72"/>
       <use x="447.949219" xlink:href="#DejaVuSans-79"/>
       <use x="507.128906" xlink:href="#DejaVuSans-20"/>
       <use x="538.916016" xlink:href="#DejaVuSans-65"/>
       <use x="600.439453" xlink:href="#DejaVuSans-72"/>
       <use x="641.537109" xlink:href="#DejaVuSans-72"/>
       <use x="682.619141" xlink:href="#DejaVuSans-6f"/>
       <use x="743.800781" xlink:href="#DejaVuSans-72"/>
      </g>
     </g>
    </g>
   </g>
   <g id="patch_33">
    <path d="M 101.88125 438.591719 
L 101.88125 12.551719 
" style="fill:none;stroke:#000000;stroke-linecap:square;stroke-linejoin:miter;stroke-width:0.3;"/>
   </g>
   <g id="patch_34">
    <path d="M 400.65625 438.591719 
L 400.65625 12.551719 
" style="fill:none;stroke:#000000;stroke-linecap:square;stroke-linejoin:miter;stroke-width:0.3;"/>
   </g>
   <g id="patch_35">
    <path d="M 101.88125 438.591719 
L 400.65625 438.591719 
" style="fill:none;stroke:#000000;stroke-linecap:square;stroke-linejoin:miter;stroke-width:0.3;"/>
   </g>
   <g id="patch_36">
    <path d="M 101.88125 12.551719 
L 400.65625 12.551719 
" style="fill:none;stroke:#000000;stroke-linecap:square;stroke-linejoin:miter;stroke-width:0.3;"/>
   </g>
   <g id="text_33">
    <!-- Feature importance via average gini/variance drop (sklearn) -->
    <defs>
     <path d="M 8.203125 0 
L 8.203125 71.578125 
L 56.5 71.578125 
L 56.5 63.140625 
L 17.671875 63.140625 
L 17.671875 40.96875 
L 51.265625 40.96875 
L 51.265625 32.515625 
L 17.671875 32.515625 
L 17.671875 0 
z
" id="ArialMT-46"/>
     <path d="M 42.09375 16.703125 
L 51.171875 15.578125 
Q 49.03125 7.625 43.21875 3.21875 
Q 37.40625 -1.171875 28.375 -1.171875 
Q 17 -1.171875 10.328125 5.828125 
Q 3.65625 12.84375 3.65625 25.484375 
Q 3.65625 38.578125 10.390625 45.796875 
Q 17.140625 53.03125 27.875 53.03125 
Q 38.28125 53.03125 44.875 45.953125 
Q 51.46875 38.875 51.46875 26.03125 
Q 51.46875 25.25 51.421875 23.6875 
L 12.75 23.6875 
Q 13.234375 15.140625 17.578125 10.59375 
Q 21.921875 6.0625 28.421875 6.0625 
Q 33.25 6.0625 36.671875 8.59375 
Q 40.09375 11.140625 42.09375 16.703125 
z
M 13.234375 30.90625 
L 42.1875 30.90625 
Q 41.609375 37.453125 38.875 40.71875 
Q 34.671875 45.796875 27.984375 45.796875 
Q 21.921875 45.796875 17.796875 41.75 
Q 13.671875 37.703125 13.234375 30.90625 
z
" id="ArialMT-65"/>
     <path d="M 40.4375 6.390625 
Q 35.546875 2.25 31.03125 0.53125 
Q 26.515625 -1.171875 21.34375 -1.171875 
Q 12.796875 -1.171875 8.203125 3 
Q 3.609375 7.171875 3.609375 13.671875 
Q 3.609375 17.484375 5.34375 20.625 
Q 7.078125 23.78125 9.890625 25.6875 
Q 12.703125 27.59375 16.21875 28.5625 
Q 18.796875 29.25 24.03125 29.890625 
Q 34.671875 31.15625 39.703125 32.90625 
Q 39.75 34.71875 39.75 35.203125 
Q 39.75 40.578125 37.25 42.78125 
Q 33.890625 45.75 27.25 45.75 
Q 21.046875 45.75 18.09375 43.578125 
Q 15.140625 41.40625 13.71875 35.890625 
L 5.125 37.0625 
Q 6.296875 42.578125 8.984375 45.96875 
Q 11.671875 49.359375 16.75 51.1875 
Q 21.828125 53.03125 28.515625 53.03125 
Q 35.15625 53.03125 39.296875 51.46875 
Q 43.453125 49.90625 45.40625 47.53125 
Q 47.359375 45.171875 48.140625 41.546875 
Q 48.578125 39.3125 48.578125 33.453125 
L 48.578125 21.734375 
Q 48.578125 9.46875 49.140625 6.21875 
Q 49.703125 2.984375 51.375 0 
L 42.1875 0 
Q 40.828125 2.734375 40.4375 6.390625 
z
M 39.703125 26.03125 
Q 34.90625 24.078125 25.34375 22.703125 
Q 19.921875 21.921875 17.671875 20.9375 
Q 15.4375 19.96875 14.203125 18.09375 
Q 12.984375 16.21875 12.984375 13.921875 
Q 12.984375 10.40625 15.640625 8.0625 
Q 18.3125 5.71875 23.4375 5.71875 
Q 28.515625 5.71875 32.46875 7.9375 
Q 36.421875 10.15625 38.28125 14.015625 
Q 39.703125 17 39.703125 22.796875 
z
" id="ArialMT-61"/>
     <path d="M 25.78125 7.859375 
L 27.046875 0.09375 
Q 23.34375 -0.6875 20.40625 -0.6875 
Q 15.625 -0.6875 12.984375 0.828125 
Q 10.359375 2.34375 9.28125 4.8125 
Q 8.203125 7.28125 8.203125 15.1875 
L 8.203125 45.015625 
L 1.765625 45.015625 
L 1.765625 51.859375 
L 8.203125 51.859375 
L 8.203125 64.703125 
L 16.9375 69.96875 
L 16.9375 51.859375 
L 25.78125 51.859375 
L 25.78125 45.015625 
L 16.9375 45.015625 
L 16.9375 14.703125 
Q 16.9375 10.9375 17.40625 9.859375 
Q 17.875 8.796875 18.921875 8.15625 
Q 19.96875 7.515625 21.921875 7.515625 
Q 23.390625 7.515625 25.78125 7.859375 
z
" id="ArialMT-74"/>
     <path d="M 40.578125 0 
L 40.578125 7.625 
Q 34.515625 -1.171875 24.125 -1.171875 
Q 19.53125 -1.171875 15.546875 0.578125 
Q 11.578125 2.34375 9.640625 5 
Q 7.71875 7.671875 6.9375 11.53125 
Q 6.390625 14.109375 6.390625 19.734375 
L 6.390625 51.859375 
L 15.1875 51.859375 
L 15.1875 23.09375 
Q 15.1875 16.21875 15.71875 13.8125 
Q 16.546875 10.359375 19.234375 8.375 
Q 21.921875 6.390625 25.875 6.390625 
Q 29.828125 6.390625 33.296875 8.421875 
Q 36.765625 10.453125 38.203125 13.9375 
Q 39.65625 17.4375 39.65625 24.078125 
L 39.65625 51.859375 
L 48.4375 51.859375 
L 48.4375 0 
z
" id="ArialMT-75"/>
     <path d="M 6.5 0 
L 6.5 51.859375 
L 14.40625 51.859375 
L 14.40625 44 
Q 17.4375 49.515625 20 51.265625 
Q 22.5625 53.03125 25.640625 53.03125 
Q 30.078125 53.03125 34.671875 50.203125 
L 31.640625 42.046875 
Q 28.421875 43.953125 25.203125 43.953125 
Q 22.3125 43.953125 20.015625 42.21875 
Q 17.71875 40.484375 16.75 37.40625 
Q 15.28125 32.71875 15.28125 27.15625 
L 15.28125 0 
z
" id="ArialMT-72"/>
     <path id="ArialMT-20"/>
     <path d="M 6.640625 61.46875 
L 6.640625 71.578125 
L 15.4375 71.578125 
L 15.4375 61.46875 
z
M 6.640625 0 
L 6.640625 51.859375 
L 15.4375 51.859375 
L 15.4375 0 
z
" id="ArialMT-69"/>
     <path d="M 6.59375 0 
L 6.59375 51.859375 
L 14.453125 51.859375 
L 14.453125 44.578125 
Q 16.890625 48.390625 20.9375 50.703125 
Q 25 53.03125 30.171875 53.03125 
Q 35.9375 53.03125 39.625 50.640625 
Q 43.3125 48.25 44.828125 43.953125 
Q 50.984375 53.03125 60.84375 53.03125 
Q 68.5625 53.03125 72.703125 48.75 
Q 76.859375 44.484375 76.859375 35.59375 
L 76.859375 0 
L 68.109375 0 
L 68.109375 32.671875 
Q 68.109375 37.9375 67.25 40.25 
Q 66.40625 42.578125 64.15625 43.984375 
Q 61.921875 45.40625 58.890625 45.40625 
Q 53.421875 45.40625 49.796875 41.765625 
Q 46.1875 38.140625 46.1875 30.125 
L 46.1875 0 
L 37.40625 0 
L 37.40625 33.6875 
Q 37.40625 39.546875 35.25 42.46875 
Q 33.109375 45.40625 28.21875 45.40625 
Q 24.515625 45.40625 21.359375 43.453125 
Q 18.21875 41.5 16.796875 37.734375 
Q 15.375 33.984375 15.375 26.90625 
L 15.375 0 
z
" id="ArialMT-6d"/>
     <path d="M 6.59375 -19.875 
L 6.59375 51.859375 
L 14.59375 51.859375 
L 14.59375 45.125 
Q 17.4375 49.078125 21 51.046875 
Q 24.5625 53.03125 29.640625 53.03125 
Q 36.28125 53.03125 41.359375 49.609375 
Q 46.4375 46.1875 49.015625 39.953125 
Q 51.609375 33.734375 51.609375 26.3125 
Q 51.609375 18.359375 48.75 11.984375 
Q 45.90625 5.609375 40.453125 2.21875 
Q 35.015625 -1.171875 29 -1.171875 
Q 24.609375 -1.171875 21.109375 0.6875 
Q 17.625 2.546875 15.375 5.375 
L 15.375 -19.875 
z
M 14.546875 25.640625 
Q 14.546875 15.625 18.59375 10.84375 
Q 22.65625 6.0625 28.421875 6.0625 
Q 34.28125 6.0625 38.453125 11.015625 
Q 42.625 15.96875 42.625 26.375 
Q 42.625 36.28125 38.546875 41.203125 
Q 34.46875 46.140625 28.8125 46.140625 
Q 23.1875 46.140625 18.859375 40.890625 
Q 14.546875 35.640625 14.546875 25.640625 
z
" id="ArialMT-70"/>
     <path d="M 3.328125 25.921875 
Q 3.328125 40.328125 11.328125 47.265625 
Q 18.015625 53.03125 27.640625 53.03125 
Q 38.328125 53.03125 45.109375 46.015625 
Q 51.90625 39.015625 51.90625 26.65625 
Q 51.90625 16.65625 48.90625 10.90625 
Q 45.90625 5.171875 40.15625 2 
Q 34.421875 -1.171875 27.640625 -1.171875 
Q 16.75 -1.171875 10.03125 5.8125 
Q 3.328125 12.796875 3.328125 25.921875 
z
M 12.359375 25.921875 
Q 12.359375 15.96875 16.703125 11.015625 
Q 21.046875 6.0625 27.640625 6.0625 
Q 34.1875 6.0625 38.53125 11.03125 
Q 42.875 16.015625 42.875 26.21875 
Q 42.875 35.84375 38.5 40.796875 
Q 34.125 45.75 27.640625 45.75 
Q 21.046875 45.75 16.703125 40.8125 
Q 12.359375 35.890625 12.359375 25.921875 
z
" id="ArialMT-6f"/>
     <path d="M 6.59375 0 
L 6.59375 51.859375 
L 14.5 51.859375 
L 14.5 44.484375 
Q 20.21875 53.03125 31 53.03125 
Q 35.6875 53.03125 39.625 51.34375 
Q 43.5625 49.65625 45.515625 46.921875 
Q 47.46875 44.1875 48.25 40.4375 
Q 48.734375 37.984375 48.734375 31.890625 
L 48.734375 0 
L 39.9375 0 
L 39.9375 31.546875 
Q 39.9375 36.921875 38.90625 39.578125 
Q 37.890625 42.234375 35.28125 43.8125 
Q 32.671875 45.40625 29.15625 45.40625 
Q 23.53125 45.40625 19.453125 41.84375 
Q 15.375 38.28125 15.375 28.328125 
L 15.375 0 
z
" id="ArialMT-6e"/>
     <path d="M 40.4375 19 
L 49.078125 17.875 
Q 47.65625 8.9375 41.8125 3.875 
Q 35.984375 -1.171875 27.484375 -1.171875 
Q 16.84375 -1.171875 10.375 5.78125 
Q 3.90625 12.75 3.90625 25.734375 
Q 3.90625 34.125 6.6875 40.421875 
Q 9.46875 46.734375 15.15625 49.875 
Q 20.84375 53.03125 27.546875 53.03125 
Q 35.984375 53.03125 41.359375 48.75 
Q 46.734375 44.484375 48.25 36.625 
L 39.703125 35.296875 
Q 38.484375 40.53125 35.375 43.15625 
Q 32.28125 45.796875 27.875 45.796875 
Q 21.234375 45.796875 17.078125 41.03125 
Q 12.9375 36.28125 12.9375 25.984375 
Q 12.9375 15.53125 16.9375 10.796875 
Q 20.953125 6.0625 27.390625 6.0625 
Q 32.5625 6.0625 36.03125 9.234375 
Q 39.5 12.40625 40.4375 19 
z
" id="ArialMT-63"/>
     <path d="M 21 0 
L 1.265625 51.859375 
L 10.546875 51.859375 
L 21.6875 20.796875 
Q 23.484375 15.765625 25 10.359375 
Q 26.171875 14.453125 28.265625 20.21875 
L 39.796875 51.859375 
L 48.828125 51.859375 
L 29.203125 0 
z
" id="ArialMT-76"/>
     <path d="M 4.984375 -4.296875 
L 13.53125 -5.5625 
Q 14.0625 -9.515625 16.5 -11.328125 
Q 19.78125 -13.765625 25.4375 -13.765625 
Q 31.546875 -13.765625 34.859375 -11.328125 
Q 38.1875 -8.890625 39.359375 -4.5 
Q 40.046875 -1.8125 39.984375 6.78125 
Q 34.234375 0 25.640625 0 
Q 14.9375 0 9.078125 7.71875 
Q 3.21875 15.4375 3.21875 26.21875 
Q 3.21875 33.640625 5.90625 39.90625 
Q 8.59375 46.1875 13.6875 49.609375 
Q 18.796875 53.03125 25.6875 53.03125 
Q 34.859375 53.03125 40.828125 45.609375 
L 40.828125 51.859375 
L 48.921875 51.859375 
L 48.921875 7.03125 
Q 48.921875 -5.078125 46.453125 -10.125 
Q 44 -15.1875 38.640625 -18.109375 
Q 33.296875 -21.046875 25.484375 -21.046875 
Q 16.21875 -21.046875 10.5 -16.875 
Q 4.78125 -12.703125 4.984375 -4.296875 
z
M 12.25 26.859375 
Q 12.25 16.65625 16.296875 11.96875 
Q 20.359375 7.28125 26.46875 7.28125 
Q 32.515625 7.28125 36.609375 11.9375 
Q 40.71875 16.609375 40.71875 26.5625 
Q 40.71875 36.078125 36.5 40.90625 
Q 32.28125 45.75 26.3125 45.75 
Q 20.453125 45.75 16.34375 40.984375 
Q 12.25 36.234375 12.25 26.859375 
z
" id="ArialMT-67"/>
     <path d="M 0 -1.21875 
L 20.75 72.796875 
L 27.78125 72.796875 
L 7.078125 -1.21875 
z
" id="ArialMT-2f"/>
     <path d="M 40.234375 0 
L 40.234375 6.546875 
Q 35.296875 -1.171875 25.734375 -1.171875 
Q 19.53125 -1.171875 14.328125 2.25 
Q 9.125 5.671875 6.265625 11.796875 
Q 3.421875 17.921875 3.421875 25.875 
Q 3.421875 33.640625 6 39.96875 
Q 8.59375 46.296875 13.765625 49.65625 
Q 18.953125 53.03125 25.34375 53.03125 
Q 30.03125 53.03125 33.6875 51.046875 
Q 37.359375 49.078125 39.65625 45.90625 
L 39.65625 71.578125 
L 48.390625 71.578125 
L 48.390625 0 
z
M 12.453125 25.875 
Q 12.453125 15.921875 16.640625 10.984375 
Q 20.84375 6.0625 26.5625 6.0625 
Q 32.328125 6.0625 36.34375 10.765625 
Q 40.375 15.484375 40.375 25.140625 
Q 40.375 35.796875 36.265625 40.765625 
Q 32.171875 45.75 26.171875 45.75 
Q 20.3125 45.75 16.375 40.96875 
Q 12.453125 36.1875 12.453125 25.875 
z
" id="ArialMT-64"/>
     <path d="M 23.390625 -21.046875 
Q 16.109375 -11.859375 11.078125 0.4375 
Q 6.0625 12.75 6.0625 25.921875 
Q 6.0625 37.546875 9.8125 48.1875 
Q 14.203125 60.546875 23.390625 72.796875 
L 29.6875 72.796875 
Q 23.78125 62.640625 21.875 58.296875 
Q 18.890625 51.5625 17.1875 44.234375 
Q 15.09375 35.109375 15.09375 25.875 
Q 15.09375 2.390625 29.6875 -21.046875 
z
" id="ArialMT-28"/>
     <path d="M 3.078125 15.484375 
L 11.765625 16.84375 
Q 12.5 11.625 15.84375 8.84375 
Q 19.1875 6.0625 25.203125 6.0625 
Q 31.25 6.0625 34.171875 8.515625 
Q 37.109375 10.984375 37.109375 14.3125 
Q 37.109375 17.28125 34.515625 19 
Q 32.71875 20.171875 25.53125 21.96875 
Q 15.875 24.421875 12.140625 26.203125 
Q 8.40625 27.984375 6.46875 31.125 
Q 4.546875 34.28125 4.546875 38.09375 
Q 4.546875 41.546875 6.125 44.5 
Q 7.71875 47.46875 10.453125 49.421875 
Q 12.5 50.921875 16.03125 51.96875 
Q 19.578125 53.03125 23.640625 53.03125 
Q 29.734375 53.03125 34.34375 51.265625 
Q 38.96875 49.515625 41.15625 46.5 
Q 43.359375 43.5 44.1875 38.484375 
L 35.59375 37.3125 
Q 35.015625 41.3125 32.203125 43.546875 
Q 29.390625 45.796875 24.265625 45.796875 
Q 18.21875 45.796875 15.625 43.796875 
Q 13.03125 41.796875 13.03125 39.109375 
Q 13.03125 37.40625 14.109375 36.03125 
Q 15.1875 34.625 17.484375 33.6875 
Q 18.796875 33.203125 25.25 31.453125 
Q 34.578125 28.953125 38.25 27.359375 
Q 41.9375 25.78125 44.03125 22.75 
Q 46.140625 19.734375 46.140625 15.234375 
Q 46.140625 10.84375 43.578125 6.953125 
Q 41.015625 3.078125 36.171875 0.953125 
Q 31.34375 -1.171875 25.25 -1.171875 
Q 15.140625 -1.171875 9.84375 3.03125 
Q 4.546875 7.234375 3.078125 15.484375 
z
" id="ArialMT-73"/>
     <path d="M 6.640625 0 
L 6.640625 71.578125 
L 15.4375 71.578125 
L 15.4375 30.765625 
L 36.234375 51.859375 
L 47.609375 51.859375 
L 27.78125 32.625 
L 49.609375 0 
L 38.765625 0 
L 21.625 26.515625 
L 15.4375 20.5625 
L 15.4375 0 
z
" id="ArialMT-6b"/>
     <path d="M 6.390625 0 
L 6.390625 71.578125 
L 15.1875 71.578125 
L 15.1875 0 
z
" id="ArialMT-6c"/>
     <path d="M 12.359375 -21.046875 
L 6.0625 -21.046875 
Q 20.65625 2.390625 20.65625 25.875 
Q 20.65625 35.0625 18.5625 44.09375 
Q 16.890625 51.421875 13.921875 58.15625 
Q 12.015625 62.546875 6.0625 72.796875 
L 12.359375 72.796875 
Q 21.53125 60.546875 25.921875 48.1875 
Q 29.6875 37.546875 29.6875 25.921875 
Q 29.6875 12.75 24.625 0.4375 
Q 19.578125 -11.859375 12.359375 -21.046875 
z
" id="ArialMT-29"/>
    </defs>
    <g style="fill:#444443;" transform="translate(132.219141 6.551719)scale(0.09 -0.09)">
     <use xlink:href="#ArialMT-46"/>
     <use x="61.083984" xlink:href="#ArialMT-65"/>
     <use x="116.699219" xlink:href="#ArialMT-61"/>
     <use x="172.314453" xlink:href="#ArialMT-74"/>
     <use x="200.097656" xlink:href="#ArialMT-75"/>
     <use x="255.712891" xlink:href="#ArialMT-72"/>
     <use x="289.013672" xlink:href="#ArialMT-65"/>
     <use x="344.628906" xlink:href="#ArialMT-20"/>
     <use x="372.412109" xlink:href="#ArialMT-69"/>
     <use x="394.628906" xlink:href="#ArialMT-6d"/>
     <use x="477.929688" xlink:href="#ArialMT-70"/>
     <use x="533.544922" xlink:href="#ArialMT-6f"/>
     <use x="589.160156" xlink:href="#ArialMT-72"/>
     <use x="622.460938" xlink:href="#ArialMT-74"/>
     <use x="650.244141" xlink:href="#ArialMT-61"/>
     <use x="705.859375" xlink:href="#ArialMT-6e"/>
     <use x="761.474609" xlink:href="#ArialMT-63"/>
     <use x="811.474609" xlink:href="#ArialMT-65"/>
     <use x="867.089844" xlink:href="#ArialMT-20"/>
     <use x="894.873047" xlink:href="#ArialMT-76"/>
     <use x="944.873047" xlink:href="#ArialMT-69"/>
     <use x="967.089844" xlink:href="#ArialMT-61"/>
     <use x="1022.705078" xlink:href="#ArialMT-20"/>
     <use x="1050.488281" xlink:href="#ArialMT-61"/>
     <use x="1106.103516" xlink:href="#ArialMT-76"/>
     <use x="1156.103516" xlink:href="#ArialMT-65"/>
     <use x="1211.71875" xlink:href="#ArialMT-72"/>
     <use x="1245.019531" xlink:href="#ArialMT-61"/>
     <use x="1300.634766" xlink:href="#ArialMT-67"/>
     <use x="1356.25" xlink:href="#ArialMT-65"/>
     <use x="1411.865234" xlink:href="#ArialMT-20"/>
     <use x="1439.648438" xlink:href="#ArialMT-67"/>
     <use x="1495.263672" xlink:href="#ArialMT-69"/>
     <use x="1517.480469" xlink:href="#ArialMT-6e"/>
     <use x="1573.095703" xlink:href="#ArialMT-69"/>
     <use x="1595.3125" xlink:href="#ArialMT-2f"/>
     <use x="1623.095703" xlink:href="#ArialMT-76"/>
     <use x="1673.095703" xlink:href="#ArialMT-61"/>
     <use x="1728.710938" xlink:href="#ArialMT-72"/>
     <use x="1762.011719" xlink:href="#ArialMT-69"/>
     <use x="1784.228516" xlink:href="#ArialMT-61"/>
     <use x="1839.84375" xlink:href="#ArialMT-6e"/>
     <use x="1895.458984" xlink:href="#ArialMT-63"/>
     <use x="1945.458984" xlink:href="#ArialMT-65"/>
     <use x="2001.074219" xlink:href="#ArialMT-20"/>
     <use x="2028.857422" xlink:href="#ArialMT-64"/>
     <use x="2084.472656" xlink:href="#ArialMT-72"/>
     <use x="2117.773438" xlink:href="#ArialMT-6f"/>
     <use x="2173.388672" xlink:href="#ArialMT-70"/>
     <use x="2229.003906" xlink:href="#ArialMT-20"/>
     <use x="2256.787109" xlink:href="#ArialMT-28"/>
     <use x="2290.087891" xlink:href="#ArialMT-73"/>
     <use x="2340.087891" xlink:href="#ArialMT-6b"/>
     <use x="2390.087891" xlink:href="#ArialMT-6c"/>
     <use x="2412.304688" xlink:href="#ArialMT-65"/>
     <use x="2467.919922" xlink:href="#ArialMT-61"/>
     <use x="2523.535156" xlink:href="#ArialMT-72"/>
     <use x="2556.835938" xlink:href="#ArialMT-6e"/>
     <use x="2612.451172" xlink:href="#ArialMT-29"/>
    </g>
   </g>
  </g>
 </g>
 <defs>
  <clipPath id="pb695fcaf49">
   <rect height="426.04" width="298.775" x="101.88125" y="12.551719"/>
  </clipPath>
 </defs>
</svg>
